<svg id="Layer_1" data-name="Layer 1" xmlns="http://www.w3.org/2000/svg" viewBox="0 0 1272.01 197.54"><defs><style>.cls-1{fill:#fff121;}</style></defs><title>SteeleAerials</title><path class="cls-1" d="M164.55,20.77a34.54,34.54,0,0,1,.82,7.53c0,.73-.05,1.55-.14,2.47s-.13,1.73-.13,2.46A51.6,51.6,0,0,1,161,46.64a80.09,80.09,0,0,1-6.57,11.78Q148.12,67.18,142,75.8T129.51,93.18l-22.18-15.6q6.3-8.76,12.46-17.52t12.45-17.25a19.94,19.94,0,0,0,1.92-2.87c.55-1,1.1-2.06,1.64-3.15.55-1.28,1-2.6,1.51-4a26.42,26.42,0,0,0,1-3.7,22.66,22.66,0,0,0-7,.69,76.21,76.21,0,0,0-10.54,3.42l-7.53,2.87q-4,1.51-8.08,3.43-3,1.36-5.88,2.87t-5.62,3.15l-3.83,2.6a50.25,50.25,0,0,0-4.38,3.42,44.74,44.74,0,0,0-7,6.85,18.22,18.22,0,0,0-4,7.66,4.61,4.61,0,0,0-.27,1.37v1.1a8.38,8.38,0,0,0,.68,3.28,13.16,13.16,0,0,0,2,3.29L94.6,94.42l17.66,19.3a16.4,16.4,0,0,1,4,6.29A40.44,40.44,0,0,1,118,127.4v2.47a37.65,37.65,0,0,1-.82,7.94,34.89,34.89,0,0,1-2.47,7.39A38.26,38.26,0,0,1,101.17,162a35.54,35.54,0,0,1-20.94,6.43H0l8.76-27.1H80.23a9.77,9.77,0,0,0,7.25-3.29,11.63,11.63,0,0,0,3.43-7.39q-4.11-4.65-8.35-9.31t-8.63-9.31q-4.38-4.65-8.62-9.3t-8.62-9.31a33.49,33.49,0,0,1-7.53-12.18,41.14,41.14,0,0,1-2.33-13.56q.54-17.79,14.1-30.52a121.49,121.49,0,0,1,29.7-20.67q5.48-2.73,10.68-4.93t10.13-4.1a91.59,91.59,0,0,1,11-3.43,80.08,80.08,0,0,1,12-2.05H138a33.82,33.82,0,0,1,13.28,2.6,22.43,22.43,0,0,1,10.27,9.17A20.61,20.61,0,0,1,164.55,20.77Z"/><path class="cls-1" d="M193.84,107.42H179.33l-11.22,34.22h32.58l-8.76,27.1H161.27q-9.86,0-16-6.57a21.69,21.69,0,0,1-6.16-15.33,11.47,11.47,0,0,1,.14-1.78,14.68,14.68,0,0,0,.14-2.05c.17-.73.36-1.41.54-2s.37-1.24.55-1.78l10.4-31.76H135.53l9-27.1h15.05l10.41-32,25.73,8.48-7.67,23.55H202.6Z"/><path class="cls-1" d="M288,168.74H228.33a30.89,30.89,0,0,1-13.82-3.15,22.26,22.26,0,0,1-10-9.71,25.71,25.71,0,0,1-2.47-6.57,32,32,0,0,1-.82-7.12,11.47,11.47,0,0,1,.14-1.78,14.68,14.68,0,0,0,.14-2,54,54,0,0,1,2.32-11.09q1.78-5.61,3.7-10.27a72.79,72.79,0,0,1,14.1-21.76,62.37,62.37,0,0,1,17.38-13,41.86,41.86,0,0,1,7.53-3.42A44.76,44.76,0,0,1,253.79,77c1.1-.18,2.19-.31,3.29-.41s2.28-.14,3.56-.14a33.43,33.43,0,0,1,20,6.3q8.76,6.3,8.76,17.52a25.32,25.32,0,0,1-.41,4.52,26.16,26.16,0,0,1-1.5,5.06q-2.21,6.86-9,14.92t-19.16,16.84h37.78Zm-44.07-58A46.6,46.6,0,0,0,233,126.31a.56.56,0,0,1-.14.41.56.56,0,0,0-.14.41q12.6-7.39,19.3-13.55T261.19,103A26.32,26.32,0,0,0,243.94,110.71Z"/><path class="cls-1" d="M381.64,168.74H322a30.83,30.83,0,0,1-13.82-3.15,22.24,22.24,0,0,1-10-9.71,26.07,26.07,0,0,1-2.46-6.57,31.44,31.44,0,0,1-.82-7.12,12.76,12.76,0,0,1,.13-1.78,14.68,14.68,0,0,0,.14-2,54.06,54.06,0,0,1,2.33-11.09c1.18-3.74,2.42-7.16,3.69-10.27a73,73,0,0,1,14.1-21.76,62.4,62.4,0,0,1,17.39-13,41.55,41.55,0,0,1,7.53-3.42A44.76,44.76,0,0,1,347.42,77c1.1-.18,2.19-.31,3.29-.41s2.28-.14,3.55-.14a33.43,33.43,0,0,1,20,6.3Q383,89.08,383,100.3a24.65,24.65,0,0,1-1.92,9.58q-2.19,6.86-9,14.92T352.9,141.64h37.77Zm-44.08-58a46.75,46.75,0,0,0-10.95,15.6.56.56,0,0,1-.13.41.53.53,0,0,0-.14.41q12.59-7.39,19.3-13.55T354.81,103A26.32,26.32,0,0,0,337.56,110.71Z"/><path class="cls-1" d="M420.24,141.64h27.1l-8.76,27.1H414.22q-10.14,0-16.43-6.7a22.25,22.25,0,0,1-6.3-15.75,14.78,14.78,0,0,1,.14-2,14.68,14.68,0,0,0,.14-2.05c.18-.55.36-1.14.55-1.78s.36-1.32.54-2l44.9-138h28.47Z"/><path class="cls-1" d="M531.93,168.74H472.25a30.83,30.83,0,0,1-13.82-3.15,22.28,22.28,0,0,1-10-9.71,26.07,26.07,0,0,1-2.46-6.57,31.44,31.44,0,0,1-.82-7.12,12.76,12.76,0,0,1,.13-1.78,13.3,13.3,0,0,0,.14-2,54.73,54.73,0,0,1,2.33-11.09c1.18-3.74,2.42-7.16,3.69-10.27a73,73,0,0,1,14.1-21.76,62.4,62.4,0,0,1,17.39-13,41.55,41.55,0,0,1,7.53-3.42A44.76,44.76,0,0,1,497.71,77c1.1-.18,2.19-.31,3.29-.41s2.28-.14,3.55-.14a33.43,33.43,0,0,1,20,6.3q8.76,6.3,8.76,17.52a26.28,26.28,0,0,1-.41,4.52,25.55,25.55,0,0,1-1.51,5.06q-2.19,6.86-9,14.92t-19.16,16.84H541Zm-44.07-58a46.64,46.64,0,0,0-11,15.6.56.56,0,0,1-.13.41.53.53,0,0,0-.14.41q12.58-7.39,19.3-13.55T505.1,103A26.27,26.27,0,0,0,487.86,110.71Z"/><path class="cls-1" d="M811.52,42.15a76.69,76.69,0,0,1,.41,8,126.12,126.12,0,0,1-2.75,24.25,298.38,298.38,0,0,1-8.27,31.13L780,169.16H751.32l12.95-39.4H702.55a73,73,0,0,0,.14,9.92c.28,3.31.59,6.71,1,10.19q.54,3.87,1.51,8t1.79,8l2.76,9.37q1.37,4.68,2.75,9.37a22.27,22.27,0,0,0,.69,2.62q.42,1.23.69,2.34l-26.17,8q-3-10.47-5.93-21.35t-4.82-21.91c-.37-2-.69-4-1-6.06s-.51-4.13-.69-6.33c-.19-2-.32-4-.41-6.07s-.14-4-.14-6.06H643.32l8.82-27.55h26.72A161.82,161.82,0,0,1,713.3,37.74a119.72,119.72,0,0,1,17.77-16.11A86.15,86.15,0,0,1,749.94,11a71.36,71.36,0,0,1,11-3.44,48.62,48.62,0,0,1,10.75-1.24q15.42,0,25.2,6.61t13.37,22A53.47,53.47,0,0,1,811.52,42.15ZM779.83,35.4a16.41,16.41,0,0,0-8.12-1.79,30.74,30.74,0,0,0-12,2.76,62.69,62.69,0,0,0-13.09,7.71,70.84,70.84,0,0,0-6.47,5.51q-3.17,3-6.47,6.61A125.54,125.54,0,0,0,717.57,78,113.64,113.64,0,0,0,707,102.21h66.12l1.66-5a229.72,229.72,0,0,0,7.85-28,104.41,104.41,0,0,0,2.34-20c0-1.47,0-2.9-.14-4.27a14.65,14.65,0,0,0-.69-3.72A9.12,9.12,0,0,0,779.83,35.4Z"/><path class="cls-1" d="M888.79,169.44H828.73a31.23,31.23,0,0,1-13.91-3.17,22.47,22.47,0,0,1-10.06-9.78,26,26,0,0,1-2.48-6.62,31.72,31.72,0,0,1-.82-7.16,13,13,0,0,1,.13-1.79,14.82,14.82,0,0,0,.14-2.06,55.26,55.26,0,0,1,2.34-11.16q1.8-5.65,3.72-10.33A73.52,73.52,0,0,1,822,95.46a62.74,62.74,0,0,1,17.5-13.08,42.39,42.39,0,0,1,7.57-3.45,45.37,45.37,0,0,1,7.3-1.79c1.11-.18,2.21-.32,3.31-.41s2.29-.14,3.58-.14a33.56,33.56,0,0,1,20.11,6.34q8.82,6.34,8.82,17.63a24.7,24.7,0,0,1-1.93,9.64q-2.21,6.9-9.09,15t-19.29,16.94h38ZM844.44,111a47,47,0,0,0-11,15.7.57.57,0,0,1-.14.42.53.53,0,0,0-.14.41q12.68-7.44,19.42-13.64t9.23-10.6A26.42,26.42,0,0,0,844.44,111Z"/><path class="cls-1" d="M979.43,107.72a39.89,39.89,0,0,0-5,4.41q-3.3,3.3-6.89,7.44a29,29,0,0,0-2.2,2.48,29,29,0,0,1-2.2,2.48q-3.58,4.68-6.06,8.68c-1.66,2.66-2.48,4.82-2.48,6.47a3.65,3.65,0,0,0,1,1.79,3.24,3.24,0,0,0,2.34.69H988.8L980,169.44h-22a33.43,33.43,0,0,1-15.84-3.86A27.22,27.22,0,0,1,930.67,154a24.47,24.47,0,0,1-1.38-3.31,19.77,19.77,0,0,1-.83-3.58,13.85,13.85,0,0,1-.69-3.31c-.09-1.1-.13-2.2-.13-3.3a40.87,40.87,0,0,1,3.85-17.22,89.92,89.92,0,0,1,9.09-15.57h-4.4a7.94,7.94,0,0,0-1.52.14,15.19,15.19,0,0,0-1.51.41,13.21,13.21,0,0,0-5.24,3.17,15.38,15.38,0,0,0-3.58,4.82,1.84,1.84,0,0,0-.41.69,2.1,2.1,0,0,0-.14.69l-2.2,6.34-25.9-8.54,15.15-47.39L937,76.59l-1.37,3.58H989.9v27.55Z"/><path class="cls-1" d="M1038.66,169.44h-24.79q-10.2,0-16.53-6.75A22.37,22.37,0,0,1,991,146.85a13.47,13.47,0,0,1,.14-2.07,14.92,14.92,0,0,0,.13-2.07c.19-.55.37-1.14.56-1.79s.36-1.33.55-2.06l18.73-58.69H1040l-19.84,62h27.28ZM1049,51.93a18.46,18.46,0,0,1-26.58,0,18.46,18.46,0,0,1-5.51-13.36,18,18,0,0,1,5.51-13.22,18.78,18.78,0,0,1,26.58,0,18.23,18.23,0,0,1,5.38,13.22A18.7,18.7,0,0,1,1049,51.93Z"/><path class="cls-1" d="M1143.08,169.44h-26.73a22.07,22.07,0,0,1-8-1.38,28.88,28.88,0,0,1-6.61-3.58,46.91,46.91,0,0,1-9,4.13,46.08,46.08,0,0,1-9.51,2.2q-1.65.27-3.3.42c-1.1.09-2.21.13-3.31.13a35.07,35.07,0,0,1-16.12-3.85,27.5,27.5,0,0,1-12-12.4,38,38,0,0,1-2.48-7,30,30,0,0,1-.83-7,36.4,36.4,0,0,1,2.76-13.91,54.49,54.49,0,0,1,7.16-12.54,74.32,74.32,0,0,1,34.3-26,131.65,131.65,0,0,1,42.57-8.13h3.86v27.27a139.61,139.61,0,0,0-17.5,1.1,72.93,72.93,0,0,0-16.67,4.14,55.31,55.31,0,0,0-13.5,6.88,47,47,0,0,0-11,10.75,13.51,13.51,0,0,1-.82,1.38,17.41,17.41,0,0,0-1.11,1.93,14.06,14.06,0,0,0-1,1.65c-.28.55-.6,1.19-1,1.93-.19.55-.37,1.19-.56,1.93a8.16,8.16,0,0,0-.27,1.92,3.08,3.08,0,0,0,.83,2.07,3.41,3.41,0,0,0,2.75,1q10.74,0,16-7.17a61.33,61.33,0,0,0,8.27-15.7c.36-1.28.73-2.48,1.1-3.58s.73-2.21,1.1-3.31l25.9,8.54-6.06,19h29.47Z"/><path class="cls-1" d="M1178.34,142.16h27.27l-8.81,27.28h-24.52q-10.2,0-16.53-6.75a22.37,22.37,0,0,1-6.34-15.84,13.47,13.47,0,0,1,.14-2.07,14.86,14.86,0,0,0,.14-2.07c.18-.55.36-1.14.55-1.79s.36-1.33.55-2.06L1196,0h28.65Z"/><path class="cls-1" d="M1260.71,157.86q-11.3,11.58-30,11.58h-27.82l8.81-27.28h19q7.17,0,10.61-3.44t3.44-10.89a31.28,31.28,0,0,0-.82-7.3,29,29,0,0,0-2.21-6.2l-9,12.26A55.07,55.07,0,0,0,1229,132l-22-16q11.84-16.53,19.28-26.45,6.88-9.92,13-18.18t6.06-8.54l24.52,12.12c-.18.18-1.28,1.75-3.3,4.68s-4.6,6.52-7.72,10.75a57,57,0,0,1,9.78,17.49,59.64,59.64,0,0,1,3.45,20Q1272,146.29,1260.71,157.86Z"/></svg>