<svg id="Layer_1" data-name="Layer 1" xmlns="http://www.w3.org/2000/svg" viewBox="0 0 1312 423"><defs><style>.cls-1,.cls-3{fill:#fff;}.cls-2{fill:none;}.cls-3{stroke:#000;stroke-miterlimit:10;stroke-width:11px;}.cls-4{fill:#fff121;}</style></defs><title>Steele Aerials</title><path class="cls-1" d="M740.35,186.73l-.05,0a.83.83,0,0,1,.07.13S740.36,186.78,740.35,186.73Zm179.51,113.9,0,0,1.47.28Z"/><path class="cls-1" d="M957.42,266.73a27.23,27.23,0,0,0,4.21.86Zm13.79,2.83h0l6.21,1.26Z"/><path class="cls-1" d="M995.22,253l-.21.09,1.92.4Zm-11.1-2.21a46.94,46.94,0,0,0-7-1.49Zm-43.48-9.19,22,4.66c-2.12-.48-4.18-.94-6.24-1.37Z"/><path class="cls-1" d="M1291,168.36c-9.47-1.72-18.48,0-27.28,2.69a283.33,283.33,0,0,0-47.05,19.9c-20,10.46-39.75,21.32-60.48,32.48a26.86,26.86,0,0,0-19.7,7.63c-2.41,2.34-6.48,3.55-9.71,5.36-3,1.71-6,3.55-8.4,5-.22,2.27-.34,3.58-.46,4.91-4.38,3.4-10.09,4-15.44,5.28-8.21,2-16.54,3.94-24.41,6.64-6.5,2.23-12.44,5.54-18.68,8.38L1027,259.85l-.28-.06-29.76-6.29-1.92-.4-10.89-2.3-7-1.49c-2-.31-3.89-.61-5.76-1.06l-8.12-1.87h-.05l-.48-.1-22-4.66-.16,0q-38.28-8-76.59-15.9c-12.28-2.53-24.58-2.93-36.84.35-3.91,1-8,1.65-12.16,2.48l-22.48-8.74.3-.88,196-47.63v7.31c3.39,0,6.78.65,9.57-.11,10.36-2.81,20.64-5.87,30.72-9.27,7.47-2.52,11.72-7,10.71-14-.44-3.11-.08-6.3-.08-10.08,2.49.81,4,1.25,5.46,1.79q46,17.25,92.05,34.51c12,4.49,24.21,8.76,36.37,13,1.77.63,4.09,1.29,5.72.87a159.49,159.49,0,0,0,16.61-5.2c2-.74,3.35-2.56,5.08-3.94a23.82,23.82,0,0,0-2.63-2.29c-13.69-8.21-27.48-16.33-41.13-24.58q-37.39-22.62-74.7-45.34a88.5,88.5,0,0,0-39-13c-5.07-.43-8.63-2.73-10.32-6.56-1.34-3.06-4-4.65-7.57-5.89a36.6,36.6,0,0,1-8-3.83c-3.31-2.19-6-5-9.35-7.13a35.85,35.85,0,0,0-8.87-4.07c-2.57-.77-5.54-.66-7.07-.82C978.94,64.36,966.82,56.32,954,49.1,935.47,38.72,916.52,28.85,897.61,19c-7.74-4.06-15.89-7.6-23.85-11.37h-15l-3.48,2.14c7.11,6.53,16,11.16,23.82,16.71s16.13,11.11,24.37,16.49S920.25,53.88,929,59c8.57,5,17.36,9.84,26.41,14.29s18.5,8.3,28.16,12.59c-.26,3.58-.53,7.27-.81,11.12l-6.79,2.49c-2.63,4.33-5.43,8.83-5.51,14.07q-.13,9-.36,18c0,1.45-.17,2.9-.28,4.64L828.22,171.72l-.39-.93q67.23-18.21,134.47-36.39c0-.28.06-.56.08-.85l-7.64-2.92L781,172.81c-.67-1.92-1.2-3.4-1.81-5.13l-36.1-4.89c-1.32-6.87-2.52-13.57-3.9-20.24-.87-4.2-2-8.36-3-12.55-1.35-5.75-5.75-8.75-12.93-9.35-2.64-.22-5.24-.72-7.87-1-7.19-.65-13.84-2-17.26-8.12,10.26,23.3,16.38,47.26,22.41,71.28q-2.68-14.31-5.38-28.64l1.18-.18q4.77,18,9.52,36l.62-.06q-3-17.82-6.08-35.64l1-.15q4.15,15.67,8.3,31.35l.82-.08q-2.22-14-4.42-28.06l1.13-.16q3.71,14.37,7.43,28.73l.66-.07-4.14-28.19.9-.17c.73,2.53,1.5,5.05,2.17,7.58,1.71,6.52,3.36,13.05,5.08,19.56a10.58,10.58,0,0,0,1,2.05l.05,0-4.17-28.3,1-.14c2.3,8.76,4.59,17.51,7,26.74l-3.89,1.7c0,.05,0,.1,0,.15a.83.83,0,0,0-.07-.13l-.06,0c-3.77,3-7.5,6-11.32,8.89-1.79,1.38-3.75,2.61-5.16,3.58,3.29,30.75,6.54,61.1,9.84,92l47.15-20.39.48.49c-.9.58-1.77,1.22-2.73,1.74C764,280.78,749.34,288.38,735,296.31a34.4,34.4,0,0,1-16.13,4.2c-42.33,1.53-84.65.84-127,.32-14.56-.19-27-2.65-38.61-9.86s-24.75-13.35-37.19-20l.48-.67,48.78,21.07c1.36-15.67,2.46-30.81,4.08-45.91s3.76-30.21,5.76-45.85c-4.37-3.1-9.14-6.56-14-9.93-1.92-1.34-3.12-2.74-2.27-4.85l-1.11,1.74c-2.59-.28-3.58-1.41-3.09-3.31a219.15,219.15,0,0,1,7.15-24q-1.53,12.87-3,25.71,2.91-10.71,5.86-21.39a30.17,30.17,0,0,1,2.89-7.43q-2.34,15.75-4.67,31.5l.48.05q4.15-16,8.27-32l1,.13-5,31.22.69.08q4.56-17.19,9.13-34.4l.86.12q-3.32,19.28-6.64,38.54c.17,0,.34.05.51.06q5.17-19.49,10.33-39l1.07.16q-3,15.89-6,31.77c6.15-24.42,12.14-48.83,22.64-72.57-3.91,6.51-11.37,7.24-18.83,8-1.81.19-3.61.43-5.41.66-9.13,1.13-12.25,3.16-14,10.39-2.28,9.55-4,19.18-6,28.77-.19.9-.42,1.81-.72,3.13l-35.9,4.84-1.91,5.16L343.88,130.68l-7.93,2.8c0,.28-.07.56-.1.84l141,38.17c-.1.27-.21.55-.32.81L328.87,136.25c-2-12.24,2.67-25.11-6.63-36.77L315.73,97c-.26-3.66-.52-7.34-.8-11.3,1.8-.8,3.47-1.6,5.22-2.29,17.5-6.88,34.25-14.82,49.52-24.48C390.09,46,409.93,32.5,430,19.25c3-1.94,6-3.82,8.84-5.85a44,44,0,0,0,3.94-3.54l-2.66-2.27H424.2a8.39,8.39,0,0,1-1.68,1.28c-35.08,15.59-68.07,33.72-99.91,53.23-5.14,3.14-9.87,6.71-15.19,10.36l-6.83.63a18.73,18.73,0,0,0-11.09,4.85c-5.23,4.65-10.66,9-18.3,11.29A10.79,10.79,0,0,0,265.73,94c-2.54,4.23-6.21,6.63-12.12,7.12-14.12,1.2-26.4,6-37.57,12.79q-53.23,32.31-106.44,64.65c-3.69,2.24-7.51,4.34-12,6.92,1.15,1.36,1.84,3.15,3.24,3.68a159.82,159.82,0,0,0,18.76,6.09c2.29.54,5.5-.73,8-1.65q27.23-9.87,54.33-20c14.58-5.47,29-11.29,43.54-16.74,10.62-4,21.45-7.62,33.32-11.81,0,3.51.48,6.53-.09,9.43-1.53,7.86,3.78,12.39,11.69,15.13,9.57,3.33,19.47,6.1,29.39,8.72,2.8.74,6.17.12,9.81.12v-7.2l195.91,47.6.34,1-22.34,8.69c-3.22-.63-6.38-1-9.31-1.85-14.87-4.33-29.69-3.29-44.59-.14q-71.5,15.13-143,30.17c-15.88,3.35-31.78,6.67-47.36,9.93-7.13-3.17-13.66-6.73-20.81-9.09-8.38-2.77-17.28-4.55-26-6.65-4.29-1-8.65-1.86-12-4.71.43-5.66-4.17-8.07-9.82-10.15a25.22,25.22,0,0,1-8.83-5c-5.26-5.2-11.8-7.57-20.27-7.45C131.77,218,122,212.32,112,206.82c-21.92-12-44-23.95-68.36-32.7a150.5,150.5,0,0,0-22.11-5.93A36.47,36.47,0,0,0,1.57,170v2.4c5.77,4,11.36,8.1,17.34,11.84,17.4,10.92,35.13,21.5,52.38,32.56a99.89,99.89,0,0,0,24.95,11.41q13.16,4,26.23,8.22a52.92,52.92,0,0,1,5.41,2.38c-.37-5.39-5.06-9.71-3.83-15.89,1.32,1.23,2.07,1.64,2.28,2.18,2.79,7.38,5.67,14.75,8.13,22.2.54,1.64-.16,3.69-.88,5.39-.32.74-2.11,1.08-4.11,2,2.94-8.24,2.67-9.54-1.82-11q-1.47,4.82-2.92,9.64l-1.1-.71c-1.66,1.68-3.35,3.32-5,5-5.73,6-4,11.48,4.58,14.46a27.32,27.32,0,0,0,6.62,1.7c7.92.6,15.85,1,23.79,1.39,1.69.1,3.4,0,5.1,0,.13.36.27.73.41,1.09-.75.45-1.46,1.28-2.25,1.32-11.28.59-22.58,1.25-33.56-1.78-4.58-1.26-8.32-3.31-9.76-7.57-2,3.45-.61,6,2.68,7.52A66.1,66.1,0,0,0,129,280.16c5.1,1.13,10.46,1.52,15.72,2.22l-.09.79a127.2,127.2,0,0,1-26.42-1.54c8.62,4.57,18.61,5,28.32,6.17l-.15,1.06-27.39-1.53c8,4.29,17.51,4.47,26.66,5.64l-.3,1.4-27.33-2c3.16,1.12,6.07,2.35,9.15,3.17a84,84,0,0,0,9.21,1.68c3,.45,6.14.73,9.21,1.08,0,.28-.1.55-.16.82a106.45,106.45,0,0,1-26.24-1.68c8.17,4.78,18,5.09,27.45,6.22l-.21,1.13-25.83-1.33c7.57,4.05,16.38,4.43,24.86,5.78-12.13,1.15-23.85.63-34.85-5,0,1.43.08,2.89,1,3.45,3.42,2,6.86,4.3,10.76,5.49,13.7,4.2,28,3.92,42.3,2.61,7.57-.69,15.05-2,22.57-3.08-11.5,4.43-38,7.39-53.25,6.35-10.16-.71-19.62-2.71-27.3-8.69-5.73,5.69-2.83,12.06-3.26,18.12l4.26,2.94c1.3,6.48,6,11,11.54,15.22A17.65,17.65,0,0,1,124,352c14.34,27.09,28.53,54.23,42.78,81.36,4.05,7.72,8.13,15.43,12.5,23.7,11.54.47,23,2.65,35.46,1.11-14.78-29.75-29.22-58.81-43.65-87.87l1-.32q23.32,42.11,46.66,84.22l1.8-.38c-.38-2.69-.3-5.48-1.23-8a107.09,107.09,0,0,0-6.1-13.51q-21.69-40.14-43.59-80.22c-.89-1.64-1.71-3.31-2.78-5.39,12,.4,20.93-3.66,29.24-9.08a12.85,12.85,0,0,1,4.29-1.93c17.14-3.69,34.32-7.28,51.85-11,15,5.74,30.15,11.41,45.13,17.42a13.16,13.16,0,0,0,9.42.59c8.84-2.71,17.72-5.33,26.53-8.07a34.7,34.7,0,0,0,4.83-2.4c-7-7.91-17-12.46-25.51-19,2.52-.55,4.39-1,6.3-1.37Q405,295.67,491,279.41c7-1.32,15-1,20-6.68l1,.42q2.61,18.75,5.21,37.52l4.33,1.87c1.44,7.85,4.57,10,14.54,10.19a5.46,5.46,0,0,0,1,0c8.1-1.28,15.34.72,22.39,3.66a53.91,53.91,0,0,0,7.78,2.63,39.34,39.34,0,0,0,9.1,1.51c43.69.1,87.38-.21,131.07.25,13.32.14,25.64-1.32,37.3-6.39a23.43,23.43,0,0,1,12.46-1.84,43.74,43.74,0,0,0,9.43-.09c5.73-.58,8.46-2.8,9.69-7.29.24-.9.51-1.79.77-2.72l4.1-1.75c1.75-12.55,3.48-25.07,5.2-37.44,3.78,1.57,6.72,3.42,10,4.05q53.51,10.33,107.09,20.33c3.65.69,7.34,1.24,12,2l3.58.8.81.16,1.45.3h0l64.52,12.22c-8.69,6.81-19,11.1-25.25,19a11.12,11.12,0,0,0,2.58,1.78c10.23,3.15,20.45,6.3,30.78,9.21a10.19,10.19,0,0,0,5.65-.51c14.7-5.59,29.3-11.36,44-16.93a11.28,11.28,0,0,1,5.69-.35q23.4,4.8,46.68,9.93a25.65,25.65,0,0,1,7.39,3c6.06,3.61,12.34,6.8,19.89,7.92,2.51.38,5.09.45,8,.69-.69,1.49-1.13,2.62-1.72,3.69-4.47,8.13-9,16.24-13.45,24.39-9,16.48-18,32.93-26.78,49.48-3.83,7.22-7.18,14.61-10.49,22-1,2.38-1.68,5,.66,8.07l43.43-78.46,1.26.43c-13.39,27-26.79,54-40.5,81.6a82.37,82.37,0,0,0,8.63.65c6.46-.21,12.91-.9,19.37-.94,5.2,0,8.11-1.62,10.14-5.53q26.25-50.54,52.91-100.92c.87-1.64,2.56-3,3.94-4.45,3.49-3.67,7.27-7.18,10.48-11,2.14-2.54,3.48-5.51,5.18-8.3,1.47-12.42,1.47-12.42-2.65-17.06-9.08,5.7-14.87,7.49-26.8,8.39-14.42,1.1-28.49-.61-42.45-3.22-3.94-.74-7.81-1.74-11.69-2.62a20,20,0,0,1,6.56.37c11.55,2.1,23.25,3.61,35.07,2.88a172.9,172.9,0,0,0,24.37-3.46c3.63-.75,6.82-3.13,10-5,1.25-.76,2.82-2.16.31-3.76-10.31,5.63-21.77,6.3-33.68,5,8.54-1.25,17.29-1.77,24.58-5.74l-26.1,1.31c0-.36-.09-.71-.14-1.07,9.36-1.24,19.17-1.24,27.21-6.2a82.12,82.12,0,0,1-25.7,1.16c9.23-1.46,18.71-1.94,26.65-6.64a80.4,80.4,0,0,1-27.2,1.27c3.18-.65,6.44-.85,9.64-1.3a88.29,88.29,0,0,0,9.67-1.86c2.92-.78,5.67-2,8.49-3-.13-.23-.26-.47-.4-.7a80.57,80.57,0,0,1-28.09,1.53c9.76-1.48,20-1.6,28.53-6.35-17.17,2.12-22.67,2.31-26.68.55,1.75-.15,3.22-.24,4.7-.4,7.72-.85,15.54-1.55,22.29-5.11,3.27-1.73,5.86-3.84,4.57-7.65-4.65,5.07-7.11,7-14.51,7.69-9.5.88-19.16.77-28.75.95-.91,0-1.84-1-2.75-1.53l.53-.91c4.92,0,9.85.17,14.77,0,7.63-.33,15.32-.67,22.22-3.74,6.39-2.85,8-7.07,4.17-12.06-1.87-2.44-4.69-4.41-7.86-7.32-.53-2.07-1.51-5-2-8.06-.73-4.31.58-6,5.65-7.69,10.6-3.49,21.3-6.79,31.84-10.37a60.43,60.43,0,0,0,11.77-5.12c16.29-9.88,32.41-20,48.52-30,8-5,15.9-10.07,23.66-15.28,1.85-1.24,3-3.16,5-5.37C1294.59,169.32,1292.81,168.69,1291,168.36Zm-269.56-48.57c.93,6.81,1.79,13.14,2.6,19.16l11.2,4.38c-15.79,7.78-31,4.37-46.23,1.58,9.65.57,19.3,1.13,28.83-1.07-9.3.19-18.41-.52-27.22-3.18,9.38.21,18.78,1.22,27.91-1.51A74.65,74.65,0,0,1,988.66,136c9,.49,18,1.36,26.92-.81-9.92.35-19.56-.48-28.67-4,8.69.87,17.36,2,26-.15-9.48.18-18.63-.81-27.11-4.45,9.24,1.51,18.42,2.15,27.6-.18-9.77.82-19.12-.23-28-4C997.44,124.57,1009.16,124.17,1021.39,119.79Zm-752.6,44.92,2.63-.64-3-3.29,20.84,6.62c0,.28-.07.56-.11.85l-8.32-.37-.14.3,8.8,2.82C281.17,172.14,274.83,169.49,268.79,164.71Zm42.7-38.21c-4.39,3-8.94,3.71-27.3,4.51,9.61,2.09,18.2,1.23,26.83.17-9,3.74-18.7,4.23-28.62,3.66,0,.28,0,.57,0,.85,4.53.31,9.05.84,13.59.86s8.89-.51,13.34-.79c.08.25.15.51.22.76-4.29.8-8.54,1.8-12.86,2.33s-8.87.59-14.27.91c9.1,2,17.41,1.05,25.72.8-8.83,2.86-18.05,3.43-27.52,3.66,3,.32,6,.76,9.05.93s6.31.21,9.45.12c3.3-.09,6.58-.41,10-.64-11.92,4.31-37.74,5.5-45.24-1.59l10.51-4c.81-6,1.68-12.23,2.62-19.1a67.85,67.85,0,0,0,36.36,2.28c-8.89,4-18.4,4.94-28.31,4.21C293.64,128.72,302.29,128.05,311.49,126.5Zm-93,188.22c-5.54-1.61-11.11-3.18-16.62-4.83-13-3.9-26-7.79-39-11.78a24,24,0,0,1-5.48-2.66c-.85-.53-1.2-1.56-1.66-2.2l63,20.89Zm51.05-28.45-6-3.75,201.35-41,.36,1.07Zm255.8,22-1.44-.12q-2-13-3.95-26l1.22-.35,5.81,11.4,17.55,1,.21.78-17.2,2.87C526.82,301.33,526.09,304.78,525.36,308.22Zm17.8,9.06c-6.88,0-11.55-3.7-11.62-9.18s4.84-9.63,11.74-9.58c6.53,0,11.48,4.12,11.48,9.46S549.8,317.29,543.16,317.28Zm212.23,0c-6.93,0-11.75-4-11.62-9.64.13-5.42,5-9.17,11.74-9.12S767,302.59,767,308,762,317.31,755.39,317.32Zm19-9h-1.27c-.76-3.48-1.52-6.94-2.32-10.57L753.51,295l.12-.8,17.67-1c2-3.9,4-7.62,5.9-11.33l1.24.27Q776.43,295.22,774.39,308.33Zm254.55-22.05c-22.4-5-44.6-9.94-67-14.91-.39-.4-16.35-3.6-16.53-3.6l-6.68-1.53c-.11-.07-5.1-.87-4.91-1.15L830.47,242a10.55,10.55,0,0,1,5,0c32.57,6.59,65.13,13.24,97.73,19.75l.79.16,23.43,4.8,4.21.86.09,0,9.49,1.95,6.22,1.27.19,0,57.15,11.66Zm99.15,56.5a34.73,34.73,0,0,1-25.89-9.07Q1115.15,338.24,1128.09,342.78Zm14.61-49.58c.33,1.65-1.61,2.63-3.44,3.31-5.85,2.16-11.75,4.31-17.77,6.15-10.38,3.16-20.85,6.08-31.3,9.09-1,.3-2.14.43-3.22.65,0-.18,0-.37,0-.55C1105.48,305.64,1124,299.43,1142.7,293.2Z"/><path class="cls-1" d="M635,334.89c-.07.57-.12,1-.19,1.61H644.9l0,.29-14.12,2.4.16.56H646.7c-5.45,1-11.31.57-16.1,3.19h16.67c-6.08.57-12.29.66-18.31,3.83L645.37,345l.07.37-18.89,4.84.59.92c-.83,1-1.38,2.39-2.53,3.08-15.71,9.36-13.14,28,3.81,35.39,11.53,5,23.5,4.81,34.58-.93,14.15-7.32,17.63-23.79,1.84-34.56l2.2-.56-1.52-2.05,3.9.73.49-.46-5-3.7.28-.41,4.29,1.2.69-.76c-1.61-1.06-3.23-2.11-5.65-3.68l5.18.68.47-.61-4.59-2.73.48-.59,3.62.61c-4.53-3.67-10.27-5.28-16.18-6.91h10.15c17.27,0,34.55-.2,51.81.1,7.85.13,15.13-.75,22-3.77a49.21,49.21,0,0,1,20.59-3.86c.65,0,1.28.07,1.9.1,3.15,34.76-30.25,82.39-96.08,89.47-66,7.1-115.66-32.36-123.29-70.36,2.43-1,3.94.06,5.39,1.47a62.52,62.52,0,0,1,10.77,13.81c14.66,25.56,38.88,42.07,73.25,48.45a101,101,0,0,0,38.54,0c-26.8,2.44-51.23-2.5-72.86-15.37s-35-30.11-41.15-51l.9-.83L570.21,350c-.43,3.16-.83,6.09-1.26,9.22,1.94.7,3.42-.2,3.65-1.81a18,18,0,0,0,0-7.42c-1.3-4.54-3.33-8.93-5-13.39-.46-1.23-.77-2.49-1.46-4.73,9.14,4.51,18.23,2.88,27,3C607.09,335,621,334.89,635,334.89Z"/><path class="cls-1" d="M645.81,390.76c-14,.06-23.46-6.2-24.19-15.51s7.17-16.81,19.37-17.81a42.14,42.14,0,0,1,10.82.55c10.07,1.79,16.53,8.54,16.14,16.37-.43,8.53-7.81,15-18.43,16.18C648,390.7,646.54,390.72,645.81,390.76Zm10.13-6.23c-7.28,2.3-13.88,1.51-19.64-2.49-6.09-4.23-6.67-9.55-3.42-15.41-6.88,4.75-7.45,11.55-1.9,16.68C637.16,389,648.41,389.69,655.94,384.53Z"/><path class="cls-1" d="M549.5,345.61,539,341.93l-1.41-14.15,9,.4C547.59,334,548.55,339.86,549.5,345.61Z"/><path class="cls-1" d="M565.8,344.2l-12.53-5.73-1.41-10.33c6.84.28,9.39,1.75,11.31,6.31,1.25,3,2.4,6,3.6,9Z"/><path class="cls-1" d="M716.15,199.6a716.77,716.77,0,0,0-134.09,0c.65-5,1.13-9.14,1.74-13.31,3.42-23.17,7.74-46.22,16-68.65,1.78-4.82,4.42-9.44,6.72-14.13,1.88-3.87,5.76-5.26,10.61-5.39,4-.11,8-.3,12-.3,15.28,0,30.56-.21,45.83.12,14.65.31,15.15-.55,20.63,12.61s9.29,27,12.51,40.67c3.41,14.52,5.26,29.26,7.76,43.91C716,196.31,716,197.5,716.15,199.6Z"/><path class="cls-1" d="M684.7,292q-1.73-16.85-3.46-33.68l-1.13-.07q-1.79,16.51-3.58,33l-.93-.06L672.33,258l-1.32-.06q-1.68,16.71-3.37,33.4l-1,0-3.06-32.35-1.6,0q-1.59,16.11-3.19,32.22h-1l-3.45-31.82-1-.06q-1.73,15.69-3.44,31.36l-1.15,0q-1.7-15.63-3.38-31.26l-1-.09-3.57,31.89h-.92q-1.71-16.05-3.41-32.09l-1.13,0-3.5,32.23h-.9l-3.47-32.92-1.12,0q-1.73,16.38-3.44,32.75h-1l-3.44-33.37-1.06-.08q-1.8,17.14-3.61,34.28l-.79,0q-1.74-17.22-3.47-34.44l-1.12-.07L604.66,292l-.71,0-3.54-35.18-1.07,0q-1.8,17.56-3.61,35.13l-.76,0q-1.76-17.91-3.52-35.82l-1.09,0q-1.8,18-3.59,36l-.73,0-3.57-36.57-1.06,0-3.15,32.07c-1.1-28.55.4-57,3.48-85.51H716.6a641.86,641.86,0,0,1,3.79,87.44L717,255.39l-1,0q-1.86,18.39-3.73,36.77l-.66,0q-1.75-18-3.52-36.09L707,256q-1.82,18-3.64,35.91l-.77,0q-1.77-17.87-3.52-35.73l-1-.05-3.66,35.84-.76,0q-1.78-17.49-3.55-35l-1,0q-1.8,17.55-3.61,35.11Z"/><line class="cls-2" x1="919.84" y1="367.84" x2="919.05" y2="367.65"/><line class="cls-2" x1="919.05" y1="367.65" x2="913.36" y2="366.51"/><polyline class="cls-1" points="977.09 316.49 963.21 313.57 962.68 313.45"/><path class="cls-3" d="M187.55,201.32a34.54,34.54,0,0,1,.82,7.53c0,.73-.05,1.55-.14,2.47s-.13,1.73-.13,2.46A51.6,51.6,0,0,1,184,227.19,79.45,79.45,0,0,1,177.42,239q-6.3,8.78-12.46,17.39t-12.45,17.38l-22.18-15.6q6.3-8.76,12.46-17.52t12.45-17.25a19.94,19.94,0,0,0,1.92-2.87c.55-1,1.1-2.06,1.64-3.15.55-1.28,1-2.6,1.51-4a26.42,26.42,0,0,0,1-3.7,22.66,22.66,0,0,0-7,.69,76.21,76.21,0,0,0-10.54,3.42l-7.53,2.87q-4,1.51-8.08,3.43-3,1.36-5.88,2.87c-1.92,1-3.79,2.05-5.62,3.15l-3.83,2.6a48.39,48.39,0,0,0-4.38,3.42,45.12,45.12,0,0,0-7,6.84,18.31,18.31,0,0,0-4,7.67,4.61,4.61,0,0,0-.27,1.37v1.09a8.43,8.43,0,0,0,.68,3.29,13.11,13.11,0,0,0,2,3.28L117.6,275l17.66,19.29a16.51,16.51,0,0,1,4,6.3A40.44,40.44,0,0,1,141,308v2.47a37.65,37.65,0,0,1-.82,7.94,35.08,35.08,0,0,1-2.47,7.39,38.18,38.18,0,0,1-13.55,16.83A35.55,35.55,0,0,1,103.23,349H23l8.76-27.1h71.45a9.77,9.77,0,0,0,7.25-3.29,11.63,11.63,0,0,0,3.43-7.39q-4.11-4.65-8.35-9.31t-8.63-9.31q-4.38-4.65-8.62-9.31T79.69,274a33.44,33.44,0,0,1-7.53-12.19,41.08,41.08,0,0,1-2.33-13.55q.54-17.79,14.1-30.52a121.49,121.49,0,0,1,29.7-20.67q5.48-2.73,10.68-4.93T134.44,188a93.5,93.5,0,0,1,10.95-3.42,80.08,80.08,0,0,1,12.05-2.05H161a33.82,33.82,0,0,1,13.28,2.6,22.43,22.43,0,0,1,10.27,9.17A20.61,20.61,0,0,1,187.55,201.32Z"/><path class="cls-3" d="M216.84,288H202.33l-11.22,34.22h32.58l-8.76,27.1H184.27q-9.86,0-16-6.57a21.69,21.69,0,0,1-6.16-15.33,11.47,11.47,0,0,1,.14-1.78,14.68,14.68,0,0,0,.14-2.05c.17-.73.36-1.41.54-2.06s.37-1.23.55-1.78L173.86,288H158.53l9-27.1h15.05l10.41-32,25.73,8.48-7.67,23.55H225.6Z"/><path class="cls-3" d="M311,349.29H251.33a31,31,0,0,1-13.82-3.15,22.26,22.26,0,0,1-10-9.71,25.64,25.64,0,0,1-2.47-6.58,31.93,31.93,0,0,1-.82-7.11,11.47,11.47,0,0,1,.14-1.78,14.72,14.72,0,0,0,.14-2.06,54.07,54.07,0,0,1,2.32-11.08q1.78-5.61,3.7-10.27a72.66,72.66,0,0,1,14.1-21.76,62.17,62.17,0,0,1,17.38-13,41.86,41.86,0,0,1,7.53-3.42,44.76,44.76,0,0,1,7.25-1.78c1.1-.18,2.19-.32,3.29-.41s2.28-.14,3.56-.14a33.36,33.36,0,0,1,20,6.3q8.76,6.3,8.76,17.52a25.4,25.4,0,0,1-.41,4.52,26.16,26.16,0,0,1-1.5,5.06q-2.21,6.85-9,14.92t-19.16,16.84h37.78Zm-44.07-58A46.74,46.74,0,0,0,256,306.86a.56.56,0,0,1-.14.41.56.56,0,0,0-.14.41q12.6-7.4,19.3-13.55t9.18-10.54A26.36,26.36,0,0,0,266.94,291.25Z"/><path class="cls-3" d="M404.64,349.29H345a31,31,0,0,1-13.82-3.15,22.24,22.24,0,0,1-10-9.71,26,26,0,0,1-2.46-6.58,31.35,31.35,0,0,1-.82-7.11A12.76,12.76,0,0,1,318,321a14.72,14.72,0,0,0,.14-2.06,54.11,54.11,0,0,1,2.33-11.08c1.18-3.74,2.42-7.16,3.69-10.27a72.86,72.86,0,0,1,14.1-21.76,62.21,62.21,0,0,1,17.39-13,41.55,41.55,0,0,1,7.53-3.42,44.76,44.76,0,0,1,7.25-1.78c1.1-.18,2.19-.32,3.29-.41s2.28-.14,3.55-.14a33.37,33.37,0,0,1,20,6.3q8.76,6.3,8.76,17.52a24.65,24.65,0,0,1-1.92,9.58q-2.19,6.85-9,14.92T375.9,322.19h37.77Zm-44.08-58a46.88,46.88,0,0,0-10.95,15.61.56.56,0,0,1-.13.41.53.53,0,0,0-.14.41q12.59-7.4,19.3-13.55t9.17-10.54A26.36,26.36,0,0,0,360.56,291.25Z"/><path class="cls-3" d="M443.24,322.19h27.1l-8.76,27.1H437.22q-10.14,0-16.43-6.71a22.23,22.23,0,0,1-6.3-15.74,14.78,14.78,0,0,1,.14-2,14.68,14.68,0,0,0,.14-2.05c.18-.55.36-1.14.55-1.78s.36-1.32.54-2.06l44.9-138h28.47Z"/><path class="cls-3" d="M554.93,349.29H495.25a31,31,0,0,1-13.82-3.15,22.28,22.28,0,0,1-10-9.71,26,26,0,0,1-2.46-6.58,31.35,31.35,0,0,1-.82-7.11,12.76,12.76,0,0,1,.13-1.78,13.34,13.34,0,0,0,.14-2.06,54.78,54.78,0,0,1,2.33-11.08c1.18-3.74,2.42-7.16,3.69-10.27a72.86,72.86,0,0,1,14.1-21.76,62.21,62.21,0,0,1,17.39-13,41.55,41.55,0,0,1,7.53-3.42,44.76,44.76,0,0,1,7.25-1.78c1.1-.18,2.19-.32,3.29-.41s2.28-.14,3.55-.14a33.37,33.37,0,0,1,20,6.3q8.76,6.3,8.76,17.52a26.37,26.37,0,0,1-.41,4.52,25.55,25.55,0,0,1-1.51,5.06q-2.19,6.85-9,14.92t-19.16,16.84H564Zm-44.07-58a46.77,46.77,0,0,0-11,15.61.56.56,0,0,1-.13.41.53.53,0,0,0-.14.41q12.58-7.4,19.3-13.55t9.17-10.54A26.31,26.31,0,0,0,510.86,291.25Z"/><path class="cls-3" d="M834.52,222.7a76.69,76.69,0,0,1,.41,8,125.94,125.94,0,0,1-2.75,24.24,297.85,297.85,0,0,1-8.27,31.14L803,349.71H774.32l12.95-39.4H725.55a73,73,0,0,0,.14,9.92c.28,3.31.59,6.71,1,10.19q.54,3.87,1.51,8t1.79,8l2.76,9.37q1.37,4.68,2.75,9.37a22.8,22.8,0,0,0,.69,2.62q.42,1.23.69,2.34l-26.17,8q-3-10.48-5.93-21.36t-4.82-21.9q-.55-3-1-6.06t-.69-6.34c-.19-2-.32-4-.41-6.06s-.14-4-.14-6.06H666.32l8.82-27.55h26.72a161.82,161.82,0,0,1,34.44-64.47,119.72,119.72,0,0,1,17.77-16.11,86.15,86.15,0,0,1,18.87-10.61,71.36,71.36,0,0,1,11-3.44,48.62,48.62,0,0,1,10.75-1.24q15.42,0,25.2,6.61t13.37,22A53.47,53.47,0,0,1,834.52,222.7ZM802.83,216a16.41,16.41,0,0,0-8.12-1.79,30.74,30.74,0,0,0-12,2.76,62.69,62.69,0,0,0-13.09,7.71,70.84,70.84,0,0,0-6.47,5.51q-3.17,3-6.47,6.61a125.54,125.54,0,0,0-16.12,21.77A113.64,113.64,0,0,0,730,282.76h66.12l1.66-5a229.72,229.72,0,0,0,7.85-28,104.59,104.59,0,0,0,2.34-20c0-1.46,0-2.89-.14-4.27a14.82,14.82,0,0,0-.69-3.72A9.13,9.13,0,0,0,802.83,216Z"/><path class="cls-3" d="M911.79,350H851.73a31.22,31.22,0,0,1-13.91-3.16A22.52,22.52,0,0,1,827.76,337a26,26,0,0,1-2.48-6.62,31.72,31.72,0,0,1-.82-7.16,13,13,0,0,1,.13-1.79,14.86,14.86,0,0,0,.14-2.07,55.32,55.32,0,0,1,2.34-11.15q1.8-5.65,3.72-10.34A73.6,73.6,0,0,1,845,276a62.79,62.79,0,0,1,17.5-13.09,43,43,0,0,1,7.57-3.44,44.34,44.34,0,0,1,7.3-1.79c1.11-.18,2.21-.32,3.31-.41s2.29-.14,3.58-.14a33.56,33.56,0,0,1,20.11,6.34q8.82,6.33,8.82,17.63a24.79,24.79,0,0,1-1.93,9.64q-2.21,6.88-9.09,15t-19.29,16.94h38Zm-44.35-58.4a47,47,0,0,0-11,15.7.55.55,0,0,1-.14.41.56.56,0,0,0-.14.42q12.68-7.44,19.42-13.64t9.23-10.61A26.43,26.43,0,0,0,867.44,291.58Z"/><path class="cls-3" d="M1002.43,288.27a39.05,39.05,0,0,0-5,4.41q-3.3,3.3-6.89,7.44a29,29,0,0,0-2.2,2.48,29,29,0,0,1-2.2,2.48q-3.58,4.68-6.06,8.68c-1.66,2.66-2.48,4.82-2.48,6.47a3.69,3.69,0,0,0,1,1.79,3.24,3.24,0,0,0,2.34.69h30.86L1003,350h-22a33.42,33.42,0,0,1-15.84-3.85,27.22,27.22,0,0,1-11.43-11.57,25,25,0,0,1-1.38-3.31,19.77,19.77,0,0,1-.83-3.58,13.85,13.85,0,0,1-.69-3.31c-.09-1.1-.13-2.2-.13-3.3a40.87,40.87,0,0,1,3.85-17.22,89.92,89.92,0,0,1,9.09-15.57h-4.4a7.94,7.94,0,0,0-1.52.14,12.87,12.87,0,0,0-1.51.41,13.21,13.21,0,0,0-5.24,3.17,15.26,15.26,0,0,0-3.58,4.82,1.76,1.76,0,0,0-.41.69,2.1,2.1,0,0,0-.14.69l-2.2,6.34L918.68,296l15.15-47.39L960,257.14l-1.37,3.58h54.27v27.55Z"/><path class="cls-3" d="M1061.66,350h-24.79q-10.2,0-16.53-6.75a22.36,22.36,0,0,1-6.34-15.84,13.43,13.43,0,0,1,.14-2.06,14.92,14.92,0,0,0,.13-2.07c.19-.55.37-1.14.56-1.79s.36-1.33.55-2.07l18.73-58.68H1063l-19.84,62h27.28ZM1072,232.48a18.46,18.46,0,0,1-26.58,0,18.46,18.46,0,0,1-5.51-13.36A18.8,18.8,0,0,1,1072,205.89a18.27,18.27,0,0,1,5.38,13.23A18.7,18.7,0,0,1,1072,232.48Z"/><path class="cls-3" d="M1166.08,350h-26.73a22.07,22.07,0,0,1-8-1.37,28.88,28.88,0,0,1-6.61-3.58,46.91,46.91,0,0,1-9,4.13,46.08,46.08,0,0,1-9.51,2.2q-1.65.27-3.3.42c-1.1.09-2.21.13-3.31.13a35.07,35.07,0,0,1-16.12-3.85,27.55,27.55,0,0,1-12-12.4,38,38,0,0,1-2.48-7,30,30,0,0,1-.83-7,36.49,36.49,0,0,1,2.76-13.92,54.63,54.63,0,0,1,7.16-12.53,74.41,74.41,0,0,1,34.3-26,131.64,131.64,0,0,1,42.57-8.12h3.86v27.27a139.61,139.61,0,0,0-17.5,1.1,72.93,72.93,0,0,0-16.67,4.14,55.31,55.31,0,0,0-13.5,6.88,46.83,46.83,0,0,0-11,10.75,13.51,13.51,0,0,1-.82,1.38,18.16,18.16,0,0,0-1.11,1.92,15,15,0,0,0-1,1.66c-.28.55-.6,1.19-1,1.93-.19.55-.37,1.19-.56,1.92a8.3,8.3,0,0,0-.27,1.93,3.08,3.08,0,0,0,.83,2.07,3.45,3.45,0,0,0,2.75,1q10.74,0,16-7.16a61.33,61.33,0,0,0,8.27-15.7c.36-1.29.73-2.48,1.1-3.59s.73-2.2,1.1-3.3l25.9,8.54-6.06,19h29.47Z"/><path class="cls-3" d="M1201.34,322.71h27.27L1219.8,350h-24.52q-10.2,0-16.53-6.75a22.36,22.36,0,0,1-6.34-15.84,13.43,13.43,0,0,1,.14-2.06,14.86,14.86,0,0,0,.14-2.07c.18-.55.36-1.14.55-1.79s.36-1.33.55-2.07L1219,180.55h28.65Z"/><path class="cls-3" d="M1283.71,338.41q-11.3,11.58-30,11.57h-27.82l8.81-27.27h19q7.17,0,10.61-3.44t3.44-10.89a31.28,31.28,0,0,0-.82-7.3,29,29,0,0,0-2.21-6.2l-9,12.26a53.63,53.63,0,0,0-3.72,5.38l-22-16q11.84-16.53,19.28-26.45,6.88-9.91,13-18.19t6.06-8.54l24.52,12.13q-.27.27-3.3,4.68t-7.72,10.74a57.16,57.16,0,0,1,9.78,17.5,59.64,59.64,0,0,1,3.45,20Q1295,326.85,1283.71,338.41Z"/><path class="cls-4" d="M187.55,201.32a34.54,34.54,0,0,1,.82,7.53c0,.73-.05,1.55-.14,2.47s-.13,1.73-.13,2.46A51.6,51.6,0,0,1,184,227.19,79.45,79.45,0,0,1,177.42,239q-6.3,8.78-12.46,17.39t-12.45,17.38l-22.18-15.6q6.3-8.76,12.46-17.52t12.45-17.25a19.94,19.94,0,0,0,1.92-2.87c.55-1,1.1-2.06,1.64-3.15.55-1.28,1-2.6,1.51-4a26.42,26.42,0,0,0,1-3.7,22.66,22.66,0,0,0-7,.69,76.21,76.21,0,0,0-10.54,3.42l-7.53,2.87q-4,1.51-8.08,3.43-3,1.36-5.88,2.87c-1.92,1-3.79,2.05-5.62,3.15l-3.83,2.6a48.39,48.39,0,0,0-4.38,3.42,45.12,45.12,0,0,0-7,6.84,18.31,18.31,0,0,0-4,7.67,4.61,4.61,0,0,0-.27,1.37v1.09a8.43,8.43,0,0,0,.68,3.29,13.11,13.11,0,0,0,2,3.28L117.6,275l17.66,19.29a16.51,16.51,0,0,1,4,6.3A40.44,40.44,0,0,1,141,308v2.47a37.65,37.65,0,0,1-.82,7.94,35.08,35.08,0,0,1-2.47,7.39,38.18,38.18,0,0,1-13.55,16.83A35.55,35.55,0,0,1,103.23,349H23l8.76-27.1h71.45a9.77,9.77,0,0,0,7.25-3.29,11.63,11.63,0,0,0,3.43-7.39q-4.11-4.65-8.35-9.31t-8.63-9.31q-4.38-4.65-8.62-9.31T79.69,274a33.44,33.44,0,0,1-7.53-12.19,41.08,41.08,0,0,1-2.33-13.55q.54-17.79,14.1-30.52a121.49,121.49,0,0,1,29.7-20.67q5.48-2.73,10.68-4.93T134.44,188a93.5,93.5,0,0,1,10.95-3.42,80.08,80.08,0,0,1,12.05-2.05H161a33.82,33.82,0,0,1,13.28,2.6,22.43,22.43,0,0,1,10.27,9.17A20.61,20.61,0,0,1,187.55,201.32Z"/><path class="cls-4" d="M216.84,288H202.33l-11.22,34.22h32.58l-8.76,27.1H184.27q-9.86,0-16-6.57a21.69,21.69,0,0,1-6.16-15.33,11.47,11.47,0,0,1,.14-1.78,14.68,14.68,0,0,0,.14-2.05c.17-.73.36-1.41.54-2.06s.37-1.23.55-1.78L173.86,288H158.53l9-27.1h15.05l10.41-32,25.73,8.48-7.67,23.55H225.6Z"/><path class="cls-4" d="M311,349.29H251.33a31,31,0,0,1-13.82-3.15,22.26,22.26,0,0,1-10-9.71,25.64,25.64,0,0,1-2.47-6.58,31.93,31.93,0,0,1-.82-7.11,11.47,11.47,0,0,1,.14-1.78,14.72,14.72,0,0,0,.14-2.06,54.07,54.07,0,0,1,2.32-11.08q1.78-5.61,3.7-10.27a72.66,72.66,0,0,1,14.1-21.76,62.17,62.17,0,0,1,17.38-13,41.86,41.86,0,0,1,7.53-3.42,44.76,44.76,0,0,1,7.25-1.78c1.1-.18,2.19-.32,3.29-.41s2.28-.14,3.56-.14a33.36,33.36,0,0,1,20,6.3q8.76,6.3,8.76,17.52a25.4,25.4,0,0,1-.41,4.52,26.16,26.16,0,0,1-1.5,5.06q-2.21,6.85-9,14.92t-19.16,16.84h37.78Zm-44.07-58A46.74,46.74,0,0,0,256,306.86a.56.56,0,0,1-.14.41.56.56,0,0,0-.14.41q12.6-7.4,19.3-13.55t9.18-10.54A26.36,26.36,0,0,0,266.94,291.25Z"/><path class="cls-4" d="M404.64,349.29H345a31,31,0,0,1-13.82-3.15,22.24,22.24,0,0,1-10-9.71,26,26,0,0,1-2.46-6.58,31.35,31.35,0,0,1-.82-7.11A12.76,12.76,0,0,1,318,321a14.72,14.72,0,0,0,.14-2.06,54.11,54.11,0,0,1,2.33-11.08c1.18-3.74,2.42-7.16,3.69-10.27a72.86,72.86,0,0,1,14.1-21.76,62.21,62.21,0,0,1,17.39-13,41.55,41.55,0,0,1,7.53-3.42,44.76,44.76,0,0,1,7.25-1.78c1.1-.18,2.19-.32,3.29-.41s2.28-.14,3.55-.14a33.37,33.37,0,0,1,20,6.3q8.76,6.3,8.76,17.52a24.65,24.65,0,0,1-1.92,9.58q-2.19,6.85-9,14.92T375.9,322.19h37.77Zm-44.08-58a46.88,46.88,0,0,0-10.95,15.61.56.56,0,0,1-.13.41.53.53,0,0,0-.14.41q12.59-7.4,19.3-13.55t9.17-10.54A26.36,26.36,0,0,0,360.56,291.25Z"/><path class="cls-4" d="M443.24,322.19h27.1l-8.76,27.1H437.22q-10.14,0-16.43-6.71a22.23,22.23,0,0,1-6.3-15.74,14.78,14.78,0,0,1,.14-2,14.68,14.68,0,0,0,.14-2.05c.18-.55.36-1.14.55-1.78s.36-1.32.54-2.06l44.9-138h28.47Z"/><path class="cls-4" d="M554.93,349.29H495.25a31,31,0,0,1-13.82-3.15,22.28,22.28,0,0,1-10-9.71,26,26,0,0,1-2.46-6.58,31.35,31.35,0,0,1-.82-7.11,12.76,12.76,0,0,1,.13-1.78,13.34,13.34,0,0,0,.14-2.06,54.78,54.78,0,0,1,2.33-11.08c1.18-3.74,2.42-7.16,3.69-10.27a72.86,72.86,0,0,1,14.1-21.76,62.21,62.21,0,0,1,17.39-13,41.55,41.55,0,0,1,7.53-3.42,44.76,44.76,0,0,1,7.25-1.78c1.1-.18,2.19-.32,3.29-.41s2.28-.14,3.55-.14a33.37,33.37,0,0,1,20,6.3q8.76,6.3,8.76,17.52a26.37,26.37,0,0,1-.41,4.52,25.55,25.55,0,0,1-1.51,5.06q-2.19,6.85-9,14.92t-19.16,16.84H564Zm-44.07-58a46.77,46.77,0,0,0-11,15.61.56.56,0,0,1-.13.41.53.53,0,0,0-.14.41q12.58-7.4,19.3-13.55t9.17-10.54A26.31,26.31,0,0,0,510.86,291.25Z"/><path class="cls-4" d="M834.52,222.7a76.69,76.69,0,0,1,.41,8,125.94,125.94,0,0,1-2.75,24.24,297.85,297.85,0,0,1-8.27,31.14L803,349.71H774.32l12.95-39.4H725.55a73,73,0,0,0,.14,9.92c.28,3.31.59,6.71,1,10.19q.54,3.87,1.51,8t1.79,8l2.76,9.37q1.37,4.68,2.75,9.37a22.8,22.8,0,0,0,.69,2.62q.42,1.23.69,2.34l-26.17,8q-3-10.48-5.93-21.36t-4.82-21.9q-.55-3-1-6.06t-.69-6.34c-.19-2-.32-4-.41-6.06s-.14-4-.14-6.06H666.32l8.82-27.55h26.72a161.82,161.82,0,0,1,34.44-64.47,119.72,119.72,0,0,1,17.77-16.11,86.15,86.15,0,0,1,18.87-10.61,71.36,71.36,0,0,1,11-3.44,48.62,48.62,0,0,1,10.75-1.24q15.42,0,25.2,6.61t13.37,22A53.47,53.47,0,0,1,834.52,222.7ZM802.83,216a16.41,16.41,0,0,0-8.12-1.79,30.74,30.74,0,0,0-12,2.76,62.69,62.69,0,0,0-13.09,7.71,70.84,70.84,0,0,0-6.47,5.51q-3.17,3-6.47,6.61a125.54,125.54,0,0,0-16.12,21.77A113.64,113.64,0,0,0,730,282.76h66.12l1.66-5a229.72,229.72,0,0,0,7.85-28,104.59,104.59,0,0,0,2.34-20c0-1.46,0-2.89-.14-4.27a14.82,14.82,0,0,0-.69-3.72A9.13,9.13,0,0,0,802.83,216Z"/><path class="cls-4" d="M911.79,350H851.73a31.22,31.22,0,0,1-13.91-3.16A22.52,22.52,0,0,1,827.76,337a26,26,0,0,1-2.48-6.62,31.72,31.72,0,0,1-.82-7.16,13,13,0,0,1,.13-1.79,14.86,14.86,0,0,0,.14-2.07,55.32,55.32,0,0,1,2.34-11.15q1.8-5.65,3.72-10.34A73.6,73.6,0,0,1,845,276a62.79,62.79,0,0,1,17.5-13.09,43,43,0,0,1,7.57-3.44,44.34,44.34,0,0,1,7.3-1.79c1.11-.18,2.21-.32,3.31-.41s2.29-.14,3.58-.14a33.56,33.56,0,0,1,20.11,6.34q8.82,6.33,8.82,17.63a24.79,24.79,0,0,1-1.93,9.64q-2.21,6.88-9.09,15t-19.29,16.94h38Zm-44.35-58.4a47,47,0,0,0-11,15.7.55.55,0,0,1-.14.41.56.56,0,0,0-.14.42q12.68-7.44,19.42-13.64t9.23-10.61A26.43,26.43,0,0,0,867.44,291.58Z"/><path class="cls-4" d="M1002.43,288.27a39.05,39.05,0,0,0-5,4.41q-3.3,3.3-6.89,7.44a29,29,0,0,0-2.2,2.48,29,29,0,0,1-2.2,2.48q-3.58,4.68-6.06,8.68c-1.66,2.66-2.48,4.82-2.48,6.47a3.69,3.69,0,0,0,1,1.79,3.24,3.24,0,0,0,2.34.69h30.86L1003,350h-22a33.42,33.42,0,0,1-15.84-3.85,27.22,27.22,0,0,1-11.43-11.57,25,25,0,0,1-1.38-3.31,19.77,19.77,0,0,1-.83-3.58,13.85,13.85,0,0,1-.69-3.31c-.09-1.1-.13-2.2-.13-3.3a40.87,40.87,0,0,1,3.85-17.22,89.92,89.92,0,0,1,9.09-15.57h-4.4a7.94,7.94,0,0,0-1.52.14,12.87,12.87,0,0,0-1.51.41,13.21,13.21,0,0,0-5.24,3.17,15.26,15.26,0,0,0-3.58,4.82,1.76,1.76,0,0,0-.41.69,2.1,2.1,0,0,0-.14.69l-2.2,6.34L918.68,296l15.15-47.39L960,257.14l-1.37,3.58h54.27v27.55Z"/><path class="cls-4" d="M1061.66,350h-24.79q-10.2,0-16.53-6.75a22.36,22.36,0,0,1-6.34-15.84,13.43,13.43,0,0,1,.14-2.06,14.92,14.92,0,0,0,.13-2.07c.19-.55.37-1.14.56-1.79s.36-1.33.55-2.07l18.73-58.68H1063l-19.84,62h27.28ZM1072,232.48a18.46,18.46,0,0,1-26.58,0,18.46,18.46,0,0,1-5.51-13.36A18.8,18.8,0,0,1,1072,205.89a18.27,18.27,0,0,1,5.38,13.23A18.7,18.7,0,0,1,1072,232.48Z"/><path class="cls-4" d="M1166.08,350h-26.73a22.07,22.07,0,0,1-8-1.37,28.88,28.88,0,0,1-6.61-3.58,46.91,46.91,0,0,1-9,4.13,46.08,46.08,0,0,1-9.51,2.2q-1.65.27-3.3.42c-1.1.09-2.21.13-3.31.13a35.07,35.07,0,0,1-16.12-3.85,27.55,27.55,0,0,1-12-12.4,38,38,0,0,1-2.48-7,30,30,0,0,1-.83-7,36.49,36.49,0,0,1,2.76-13.92,54.63,54.63,0,0,1,7.16-12.53,74.41,74.41,0,0,1,34.3-26,131.64,131.64,0,0,1,42.57-8.12h3.86v27.27a139.61,139.61,0,0,0-17.5,1.1,72.93,72.93,0,0,0-16.67,4.14,55.31,55.31,0,0,0-13.5,6.88,46.83,46.83,0,0,0-11,10.75,13.51,13.51,0,0,1-.82,1.38,18.16,18.16,0,0,0-1.11,1.92,15,15,0,0,0-1,1.66c-.28.55-.6,1.19-1,1.93-.19.55-.37,1.19-.56,1.92a8.3,8.3,0,0,0-.27,1.93,3.08,3.08,0,0,0,.83,2.07,3.45,3.45,0,0,0,2.75,1q10.74,0,16-7.16a61.33,61.33,0,0,0,8.27-15.7c.36-1.29.73-2.48,1.1-3.59s.73-2.2,1.1-3.3l25.9,8.54-6.06,19h29.47Z"/><path class="cls-4" d="M1201.34,322.71h27.27L1219.8,350h-24.52q-10.2,0-16.53-6.75a22.36,22.36,0,0,1-6.34-15.84,13.43,13.43,0,0,1,.14-2.06,14.86,14.86,0,0,0,.14-2.07c.18-.55.36-1.14.55-1.79s.36-1.33.55-2.07L1219,180.55h28.65Z"/><path class="cls-4" d="M1283.71,338.41q-11.3,11.58-30,11.57h-27.82l8.81-27.27h19q7.17,0,10.61-3.44t3.44-10.89a31.28,31.28,0,0,0-.82-7.3,29,29,0,0,0-2.21-6.2l-9,12.26a53.63,53.63,0,0,0-3.72,5.38l-22-16q11.84-16.53,19.28-26.45,6.88-9.91,13-18.19t6.06-8.54l24.52,12.13q-.27.27-3.3,4.68t-7.72,10.74a57.16,57.16,0,0,1,9.78,17.5,59.64,59.64,0,0,1,3.45,20Q1295,326.85,1283.71,338.41Z"/></svg>