<svg id="Layer_1" data-name="Layer 1" xmlns="http://www.w3.org/2000/svg" viewBox="0 0 1312 604"><defs><style>.cls-1,.cls-3{fill:#fff;}.cls-2{fill:none;}.cls-3{stroke:#000;stroke-miterlimit:10;stroke-width:11px;}.cls-4{fill:#fff121;}</style></defs><title>Steele Aerials</title><path class="cls-1" d="M740.63,234.57l0,0a1.11,1.11,0,0,1,.07.16C740.64,234.7,740.64,234.63,740.63,234.57ZM920.7,377l0,0,1.47.35Z"/><path class="cls-1" d="M958.37,334.59a23.47,23.47,0,0,0,4.22,1.08Zm13.83,3.54h0l6.23,1.58Z"/><path class="cls-1" d="M996.29,317.44l-.21.11,1.92.5Zm-11.14-2.77a39.56,39.56,0,0,0-7-1.86Zm-43.61-11.49L963.65,309c-2.13-.6-4.2-1.17-6.26-1.71Z"/><path class="cls-1" d="M1292.93,211.6c-9.5-2.15-18.54,0-27.36,3.37-16.69,6.46-32.26,15.16-47.2,24.88-20.1,13.08-39.87,26.65-60.67,40.61-7.29-.18-14.17,2.79-19.76,9.54-2.41,2.92-6.5,4.43-9.74,6.7-3.06,2.14-6,4.43-8.42,6.23-.22,2.84-.34,4.48-.46,6.14-4.4,4.25-10.12,4.94-15.49,6.6-8.24,2.54-16.59,4.93-24.49,8.31-6.52,2.79-12.47,6.92-18.73,10.48q-16.24-4.24-32.47-8.47l-.28-.07L998,318.05l-1.92-.5-10.93-2.88-7-1.86c-2-.39-3.9-.76-5.78-1.32l-8.14-2.34h0l-.48-.13-22.11-5.83-.16,0q-38.4-10-76.83-19.88c-12.32-3.17-24.65-3.67-36.95.43-3.92,1.31-8,2.07-12.2,3.11l-22.55-10.93.3-1.1,196.62-59.55v9.14c3.4,0,6.8.81,9.6-.14,10.39-3.52,20.7-7.34,30.81-11.59,7.5-3.15,11.76-8.75,10.75-17.55-.45-3.89-.08-7.88-.08-12.61,2.49,1,4,1.56,5.47,2.24,30.78,14.38,61.53,28.84,92.34,43.15,12.07,5.61,24.28,10.95,36.48,16.29,1.77.78,4.1,1.61,5.74,1.09a140.86,140.86,0,0,0,16.66-6.5c2-.93,3.36-3.2,5.09-4.93a26.57,26.57,0,0,0-2.63-2.87c-13.74-10.26-27.57-20.41-41.26-30.73q-37.52-28.28-74.93-56.68c-11.64-8.79-24.47-14.77-39.16-16.31a11.69,11.69,0,0,1-10.35-8.2c-1.35-3.82-4.07-5.81-7.6-7.36a34.16,34.16,0,0,1-8-4.79c-3.32-2.74-6-6.23-9.38-8.91a33.09,33.09,0,0,0-8.9-5.09c-2.58-1-5.56-.83-7.09-1C980,81.58,967.8,71.52,954.91,62.5c-18.56-13-37.56-25.32-56.53-37.69-7.77-5.07-15.94-9.5-23.93-14.21h-15L856,13.27c7.13,8.17,16,14,23.89,20.9S896,48.06,904.3,54.79s16.79,13.69,25.53,20.07,17.42,12.31,26.5,17.87,18.55,10.38,28.24,15.74c-.26,4.48-.53,9.09-.81,13.9L977,125.49c-2.64,5.41-5.45,11-5.53,17.59q-.13,11.25-.36,22.49c0,1.81-.17,3.62-.28,5.8l-142,44.44-.39-1.17,134.89-45.5c0-.35.06-.7.08-1.06l-7.67-3.65L781.37,217.17c-.68-2.4-1.21-4.25-1.82-6.41l-36.21-6.12c-1.32-8.59-2.53-17-3.91-25.3-.87-5.25-2-10.46-3-15.7-1.36-7.19-5.77-10.94-13-11.69-2.65-.27-5.26-.9-7.9-1.2-7.21-.81-13.88-2.48-17.31-10.15,10.29,29.13,16.43,59.09,22.48,89.12l-5.4-35.81,1.19-.22q4.79,22.51,9.55,45l.62-.07q-3-22.28-6.1-44.56l1-.19q4.17,19.6,8.33,39.2l.82-.1q-2.22-17.55-4.43-35.09l1.13-.19q3.72,18,7.45,35.91l.67-.08q-2.09-17.62-4.16-35.25l.91-.21c.73,3.16,1.5,6.31,2.17,9.48,1.72,8.15,3.37,16.31,5.1,24.45a14.78,14.78,0,0,0,1,2.57l0,0q-2.08-17.7-4.18-35.38l1-.18c2.31,11,4.61,21.9,7,33.44l-3.9,2.12c0,.06,0,.13,0,.19a1.11,1.11,0,0,0-.07-.16l-.06,0c-3.78,3.71-7.52,7.46-11.35,11.12-1.8,1.72-3.77,3.26-5.18,4.48,3.3,38.44,6.56,76.38,9.87,115l47.3-25.49.48.61c-.91.72-1.78,1.52-2.74,2.17-14.56,9.67-29.25,19.17-43.65,29.08a29.47,29.47,0,0,1-16.18,5.26c-42.47,1.91-84.92,1.05-127.4.39-14.6-.23-27-3.31-38.73-12.32s-24.82-16.69-37.3-24.94l.48-.84,48.93,26.34c1.37-19.59,2.47-38.52,4.09-57.4s3.78-37.77,5.78-57.32c-4.38-3.88-9.17-8.21-14-12.42-1.93-1.67-3.13-3.43-2.28-6.06-.37.72-.73,1.44-1.11,2.17-2.6-.35-3.59-1.76-3.1-4.14,2-10,4.14-20.08,7.17-30q-1.53,16.08-3,32.14,2.93-13.38,5.88-26.74a43.27,43.27,0,0,1,2.9-9.29q-2.35,19.7-4.69,39.38l.49.06q4.15-20,8.29-40l1,.16q-2.5,19.51-5,39l.69.11q4.57-21.51,9.16-43l.86.16-6.66,48.18.51.08q5.19-24.37,10.36-48.77l1.08.21q-3,19.85-6,39.71c6.17-30.53,12.18-61.05,22.71-90.72-3.92,8.13-11.41,9.05-18.89,10-1.81.24-3.62.54-5.43.82-9.15,1.41-12.28,4-14,13-2.29,11.94-4.05,24-6,36-.19,1.13-.42,2.26-.72,3.91l-36,6.06c-.58,2-1.13,3.81-1.92,6.45L342.94,164.49,335,168c0,.35-.07.7-.1,1l141.44,47.73c-.1.34-.21.68-.32,1L327.88,171.46c-2-15.31,2.68-31.39-6.65-46l-6.53-3.11c-.26-4.57-.52-9.18-.8-14.13,1.8-1,3.48-2,5.23-2.86,17.56-8.6,34.36-18.53,49.68-30.61,20.48-16.15,40.38-33,60.54-49.59,3-2.43,6-4.78,8.87-7.31a49.57,49.57,0,0,0,3.95-4.43l-2.66-2.84h-16a9.09,9.09,0,0,1-1.69,1.6C386.63,31.69,353.54,54.36,321.6,78.75c-5.15,3.93-9.9,8.39-15.23,13l-6.86.79a17.33,17.33,0,0,0-11.12,6.07c-5.25,5.81-10.69,11.25-18.36,14.11-2.28.85-4.35,3.55-5.48,5.9-2.55,5.29-6.23,8.29-12.16,8.91-14.16,1.49-26.48,7.51-37.69,16q-53.4,40.4-106.77,80.83c-3.7,2.8-7.53,5.42-12,8.65,1.15,1.7,1.84,3.93,3.25,4.6A138.74,138.74,0,0,0,118,245.16c2.29.68,5.51-.91,8-2.06,18.21-8.23,36.4-16.5,54.5-25,14.62-6.84,29-14.11,43.67-20.93,10.66-5,21.52-9.52,33.43-14.77,0,4.39.48,8.17-.09,11.79-1.54,9.83,3.79,15.5,11.72,18.92,9.6,4.16,19.53,7.63,29.48,10.91,2.81.92,6.19.14,9.84.14v-9l196.52,59.52.34,1.21L483,286.78a87.92,87.92,0,0,1-9.34-2.31c-14.92-5.42-29.78-4.11-44.73-.17Q357.23,303.22,285.47,322c-15.93,4.18-31.88,8.33-47.51,12.41-7.15-4-13.7-8.42-20.87-11.37-8.41-3.46-17.33-5.68-26.07-8.31-4.3-1.29-8.68-2.32-12.06-5.89.43-7.08-4.18-10.09-9.85-12.69a24.68,24.68,0,0,1-8.85-6.3c-5.28-6.5-11.84-9.47-20.34-9.31-9.75-6.89-19.6-14-29.61-20.87-22-15.07-44.14-29.94-68.57-40.88a127.83,127.83,0,0,0-22.18-7.42,29.91,29.91,0,0,0-20,2.21v3c5.79,5,11.4,10.13,17.4,14.81,17.45,13.65,35.23,26.88,52.54,40.71a92.43,92.43,0,0,0,25,14.26q13.2,5,26.31,10.28a49.14,49.14,0,0,1,5.43,3c-.37-6.73-5.07-12.13-3.84-19.86,1.32,1.54,2.08,2.05,2.29,2.72,2.8,9.23,5.68,18.44,8.15,27.76.54,2.05-.16,4.61-.88,6.74-.32.92-2.12,1.35-4.12,2.51,2.95-10.3,2.67-11.93-1.83-13.74q-1.47,6-2.93,12.05l-1.1-.88c-1.67,2.09-3.36,4.15-5,6.27-5.74,7.47-4,14.35,4.6,18.08a22.75,22.75,0,0,0,6.64,2.12c7.94.76,15.9,1.23,23.86,1.75,1.7.12,3.41,0,5.12,0,.13.45.27.91.41,1.36-.75.57-1.47,1.6-2.26,1.65-11.31.74-22.65,1.57-33.66-2.22-4.6-1.58-8.35-4.14-9.79-9.47-2,4.32-.61,7.52,2.69,9.4a57.32,57.32,0,0,0,12.7,5.49c5.12,1.42,10.5,1.9,15.77,2.78l-.09,1a102.85,102.85,0,0,1-26.5-1.93c8.65,5.72,18.67,6.21,28.41,7.71l-.15,1.33-27.48-1.91c8,5.36,17.57,5.58,26.75,7l-.3,1.75-27.42-2.52c3.17,1.4,6.09,2.95,9.18,4a68.36,68.36,0,0,0,9.24,2.1c3.06.56,6.16.91,9.24,1.35-.05.35-.1.69-.16,1A86.3,86.3,0,0,1,117.5,373c8.2,6,18,6.37,27.54,7.78l-.21,1.42-25.91-1.67c7.59,5.07,16.43,5.54,24.94,7.23-12.17,1.43-23.93.79-35-6.25,0,1.78.08,3.61,1,4.31,3.43,2.53,6.88,5.37,10.79,6.86,13.75,5.25,28.12,4.9,42.43,3.27,7.6-.87,15.1-2.55,22.64-3.86-11.53,5.54-38.1,9.25-53.41,7.94-10.19-.88-19.68-3.38-27.38-10.86-5.75,7.11-2.84,15.08-3.27,22.65l4.27,3.68c1.3,8.1,6.05,13.75,11.57,19a21.23,21.23,0,0,1,4.85,6.72Q144,492,165.32,543c4.06,9.65,8.16,19.29,12.54,29.63,11.58.58,23,3.31,35.57,1.39L169.64,464.11l1-.41L217.42,569l1.81-.47c-.38-3.36-.3-6.86-1.24-10a149.32,149.32,0,0,0-6.12-16.89q-21.75-50.19-43.72-100.3c-.89-2.05-1.72-4.14-2.79-6.74,12,.5,21-4.58,29.33-11.35a12,12,0,0,1,4.3-2.42c17.2-4.61,34.43-9.1,52-13.72,15,7.17,30.24,14.26,45.26,21.78,3.35,1.67,6.14,2,9.45.73,8.87-3.39,17.78-6.66,26.62-10.09,1.58-.61,2.93-1.79,4.84-3-7-9.88-17-15.58-25.59-23.74,2.53-.69,4.41-1.26,6.32-1.71q86.32-20.26,172.62-40.58c7-1.66,15-1.22,20-8.36l1.06.53q2.61,23.44,5.22,46.91l4.35,2.33c1.44,9.82,4.58,12.52,14.58,12.74a4.1,4.1,0,0,0,1,0c8.13-1.6,15.39.9,22.46,4.57a46.83,46.83,0,0,0,7.81,3.29,32.45,32.45,0,0,0,9.13,1.89c43.82.12,87.65-.27,131.47.31,13.36.18,25.72-1.65,37.42-8a19.41,19.41,0,0,1,12.49-2.3,35.28,35.28,0,0,0,9.46-.11c5.75-.73,8.49-3.5,9.72-9.12.24-1.12.51-2.24.77-3.4l4.12-2.18c1.75-15.7,3.49-31.35,5.21-46.81,3.8,2,6.74,4.27,10,5.06,35.78,8.61,71.61,17,107.43,25.42,3.66.86,7.36,1.55,12,2.53l3.59,1,.82.21,1.45.37h0l64.72,15.28c-8.72,8.51-19,13.88-25.33,23.79,1.14,1,1.75,1.91,2.59,2.23,10.26,3.93,20.51,7.87,30.87,11.51a8.29,8.29,0,0,0,5.67-.64c14.75-7,29.39-14.2,44.14-21.16a9.14,9.14,0,0,1,5.71-.44q23.46,6,46.82,12.42a23.14,23.14,0,0,1,7.41,3.79c6.08,4.52,12.38,8.51,20,9.91,2.52.47,5.11.56,8,.86-.69,1.86-1.14,3.27-1.73,4.61-4.48,10.17-9,20.31-13.49,30.5-9,20.6-18.06,41.17-26.86,61.86-3.84,9-7.2,18.27-10.52,27.51-1.06,3-1.69,6.28.66,10.08,14.71-33.14,29.14-65.61,43.56-98.09l1.27.54-40.63,102c3.48.35,6.08.92,8.66.81,6.48-.26,13-1.13,19.43-1.18,5.21,0,8.13-2,10.17-6.91q26.33-63.18,53.07-126.18c.87-2,2.57-3.75,4-5.56,3.51-4.59,7.3-9,10.52-13.77,2.14-3.18,3.49-6.9,5.19-10.38,1.48-15.53,1.48-15.53-2.66-21.33-9.1,7.13-14.91,9.36-26.88,10.49-14.46,1.37-28.58-.76-42.58-4-4-.92-7.83-2.17-11.73-3.27a16.06,16.06,0,0,1,6.59.46c11.58,2.63,23.32,4.51,35.17,3.6a141.4,141.4,0,0,0,24.45-4.33c3.64-.94,6.84-3.91,10-6.29,1.25-.95,2.83-2.69.31-4.69-10.34,7-21.84,7.87-33.78,6.28,8.56-1.56,17.34-2.21,24.65-7.17l-26.18,1.63c0-.44-.09-.89-.14-1.33,9.39-1.55,19.23-1.56,27.3-7.75a66.74,66.74,0,0,1-25.78,1.45c9.25-1.83,18.76-2.43,26.73-8.31a65.16,65.16,0,0,1-27.29,1.59c3.19-.81,6.46-1.06,9.67-1.63a71.31,71.31,0,0,0,9.7-2.32c2.93-1,5.69-2.45,8.52-3.71-.13-.29-.26-.59-.4-.88a65.35,65.35,0,0,1-28.18,1.92c9.79-1.85,20-2,28.62-7.94-17.22,2.65-22.74,2.88-26.76.68,1.75-.18,3.23-.3,4.71-.5,7.75-1.06,15.59-1.94,22.36-6.39,3.28-2.16,5.88-4.8,4.59-9.56-4.67,6.34-7.14,8.75-14.56,9.61-9.53,1.1-19.22,1-28.84,1.19-.91,0-1.84-1.25-2.76-1.91.18-.38.36-.76.53-1.14,4.94,0,9.89.22,14.82-.05,7.65-.41,15.37-.83,22.29-4.68,6.41-3.56,8-8.84,4.18-15.07-1.87-3.05-4.7-5.52-7.88-9.15-.53-2.59-1.52-6.3-2-10.08-.73-5.39.58-7.54,5.67-9.62,10.63-4.36,21.36-8.48,31.94-13a55.59,55.59,0,0,0,11.8-6.4c16.34-12.35,32.51-24.94,48.67-37.54,8-6.24,16-12.59,23.74-19.1,1.85-1.55,3-3.95,5-6.71C1296.58,212.8,1294.8,212,1292.93,211.6Zm-270.39-60.72c.93,8.51,1.79,16.43,2.61,24l11.23,5.48c-15.84,9.73-31.12,5.46-46.37,2,9.68.71,19.36,1.41,28.92-1.34-9.33.23-18.47-.65-27.31-4,9.41.27,18.84,1.53,28-1.89-10.33,1.35-20.24-.32-29.91-4,9,.61,18.06,1.7,27-1-10,.44-19.62-.6-28.76-5,8.72,1.09,17.42,2.53,26.1-.19-9.51.23-18.68-1-27.19-5.57,9.27,1.89,18.48,2.7,27.68-.22-9.8,1-19.17-.29-28-5C998.52,156.86,1010.27,156.35,1022.54,150.88ZM267.62,207l2.63-.8c-.79-1.08-1.57-2.12-3.05-4.11l20.91,8.27c0,.36-.07.71-.11,1.07l-8.35-.47c0,.13-.09.26-.14.38l8.83,3.52C280,216.33,273.67,213,267.62,207Zm42.83-47.77c-4.41,3.74-9,4.64-27.39,5.64,9.64,2.61,18.26,1.54,26.92.21-9.05,4.67-18.76,5.29-28.71,4.58,0,.35,0,.71,0,1.06,4.54.39,9.08,1.05,13.63,1.07s8.92-.63,13.38-1c.08.31.15.63.22,1-4.3,1-8.56,2.25-12.9,2.91s-8.9.74-14.31,1.14c9.13,2.52,17.46,1.31,25.8,1-8.86,3.57-18.11,4.28-27.61,4.57,3,.4,6,1,9.08,1.17a88.21,88.21,0,0,0,9.48.15c3.31-.12,6.6-.52,10-.81-12,5.39-37.86,6.88-45.38-2l10.54-5c.82-7.46,1.69-15.29,2.63-23.88,12.2,5.08,24.19,6.09,36.47,2.85-8.91,5-18.45,6.18-28.39,5.27C292.54,162.05,301.22,161.2,310.45,159.27ZM217.18,394.59c-5.56-2-11.14-4-16.67-6-13.06-4.87-26.12-9.74-39.13-14.73a22.4,22.4,0,0,1-5.5-3.32c-.85-.66-1.2-1.95-1.66-2.75l63.23,26.12ZM268.39,359l-6-4.69,202-51.21.36,1.34ZM525,386.47l-1.45-.15-4-32.54,1.23-.43,5.82,14.25,17.61,1.3.21,1-17.26,3.58C526.44,377.85,525.71,382.16,525,386.47Zm17.85,11.32c-6.9,0-11.58-4.63-11.65-11.47-.07-7,4.85-12.05,11.77-12a11.5,11.5,0,0,1,11.52,11.82A11.33,11.33,0,0,1,542.83,397.79Zm212.89,0c-7,0-11.79-5-11.66-12,.13-6.78,5-11.47,11.78-11.4a11.73,11.73,0,0,1-.12,23.45Zm19.06-11.24H773.5c-.76-4.34-1.52-8.67-2.32-13.21l-17.35-3.49.12-1,17.73-1.25,5.92-14.16,1.24.33Q776.82,370.21,774.78,386.6ZM1030.11,359l-67.17-18.65c-.4-.5-16.4-4.5-16.59-4.5l-6.7-1.91c-.11-.09-5.11-1.09-4.92-1.44L831,303.69a8.57,8.57,0,0,1,5,0c32.67,8.24,65.33,16.55,98,24.69l.79.2,23.5,6,4.22,1.08.09,0,9.52,2.44,6.24,1.59.19,0L1036,354.35Zm99.46,70.63c-10.51.67-19-3.58-26-11.34Zm14.65-62c.33,2.06-1.61,3.28-3.45,4.13-5.87,2.7-11.78,5.39-17.82,7.69-10.41,3.95-20.92,7.61-31.4,11.37-1,.37-2.15.54-3.23.81,0-.23,0-.46,0-.69Z"/><path class="cls-1" d="M634.91,419.8c-.07.71-.11,1.21-.19,2h10.16l0,.37-14.16,3,.15.7h15.78c-5.47,1.22-11.34.71-16.15,4h16.73c-6.1.71-12.33.83-18.37,4.79l16.46-2.2.07.46L626.48,439c.2.39.4.77.59,1.16-.83,1.3-1.38,3-2.54,3.84-15.76,11.7-13.17,35,3.83,44.25,11.56,6.26,23.56,6,34.68-1.16,14.2-9.16,17.69-29.75,1.85-43.21l2.2-.7-1.52-2.57,3.91.92.5-.58-5-4.62.27-.51,4.32,1.49.69-.95-5.67-4.6,5.19.86.48-.77-4.61-3.42.48-.73,3.63.76c-4.54-4.59-10.3-6.6-16.23-8.63h10.18c17.33,0,34.66-.26,52,.12,7.87.17,15.18-.94,22.08-4.72a41,41,0,0,1,20.66-4.82c.64,0,1.28.08,1.9.13C763.5,454,730,513.52,664,522.37c-66.23,8.87-116-40.46-123.68-88,2.44-1.24,4,.08,5.41,1.85a78.52,78.52,0,0,1,10.81,17.26c14.7,32,39,52.6,73.47,60.57a81.48,81.48,0,0,0,38.65,0c-26.88,3.05-51.37-3.12-73.08-19.21s-35.14-37.65-41.27-63.76l.9-1,14.79,8.6c-.44,4-.84,7.63-1.27,11.54,1.95.87,3.43-.25,3.66-2.26.36-3.07.69-6.34,0-9.29-1.3-5.67-3.33-11.16-5-16.74-.46-1.53-.78-3.11-1.47-5.91,9.18,5.64,18.29,3.6,27.12,3.76C607,420,620.93,419.8,634.91,419.8Z"/><path class="cls-1" d="M645.8,489.66c-14,.08-23.54-7.76-24.27-19.4s7.2-21,19.44-22.27a34.75,34.75,0,0,1,10.85.69c10.1,2.24,16.58,10.69,16.19,20.47a20.77,20.77,0,0,1-18.49,20.24C648,489.59,646.53,489.61,645.8,489.66ZM656,481.87c-7.3,2.88-13.92,1.89-19.7-3.11-6.11-5.29-6.7-11.94-3.44-19.27-6.89,5.94-7.47,14.43-1.9,20.86C637.12,487.5,648.41,488.32,656,481.87Z"/><path class="cls-1" d="M549.19,433.2l-10.54-4.6c-.4-5-.89-11.17-1.41-17.68l9.06.49C547.27,418.72,548.24,426,549.19,433.2Z"/><path class="cls-1" d="M565.54,431.44,553,424.28c-.48-4.39-.94-8.61-1.42-12.91,6.87.35,9.43,2.18,11.35,7.88,1.26,3.74,2.41,7.51,3.61,11.26Z"/><path class="cls-1" d="M716.36,250.66a578,578,0,0,0-134.51,0c.65-6.2,1.13-11.43,1.75-16.64,3.43-29,7.76-57.78,16-85.83,1.79-6,4.44-11.8,6.74-17.67,1.9-4.83,5.78-6.57,10.65-6.74,4-.13,8-.36,12-.37,15.32,0,30.65-.25,46,.15,14.7.39,15.19-.69,20.69,15.77s9.32,33.7,12.55,50.85c3.42,18.14,5.28,36.58,7.79,54.9C716.23,246.55,716.21,248,716.36,250.66Z"/><path class="cls-1" d="M684.81,366.14q-1.74-21-3.47-42.1l-1.14-.1q-1.79,20.67-3.59,41.33l-.93-.07q-1.65-20.77-3.28-41.54l-1.32-.07q-1.7,20.88-3.38,41.76l-1.05-.06-3.06-40.43-1.61,0q-1.61,20.13-3.2,40.28h-1q-1.72-19.91-3.46-39.79l-1.06-.07-3.45,39.21-1.16,0q-1.7-19.55-3.38-39.09l-1-.11q-1.79,19.93-3.58,39.87h-.92l-3.42-40.12-1.13-.05-3.51,40.3-.9,0-3.49-41.16-1.12-.05L622.67,365h-1l-3.46-41.72-1.06-.1q-1.8,21.44-3.62,42.86l-.79,0L609.3,323l-1.13-.08-3.65,43.26-.71,0q-1.77-22-3.55-44l-1.07-.05L595.56,366l-.76,0q-1.77-22.4-3.53-44.79l-1.1,0q-1.78,22.47-3.59,45l-.74,0-3.58-45.72-1.06,0q-1.58,20-3.16,40.09a908.7,908.7,0,0,1,3.5-106.9H716.81c3.42,36.16,4.36,72.69,3.8,109.32q-1.71-21.21-3.41-42.41l-1,0q-1.86,23-3.73,46l-.67-.05q-1.77-22.56-3.53-45.11l-1.07-.05q-1.83,22.46-3.65,44.9l-.78,0q-1.77-22.33-3.53-44.67l-1-.07q-1.83,22.39-3.68,44.81l-.76,0q-1.77-21.85-3.56-43.71l-1-.05q-1.82,22-3.62,43.9Z"/><line class="cls-2" x1="920.68" y1="461" x2="919.88" y2="460.77"/><line class="cls-2" x1="919.88" y1="460.77" x2="914.18" y2="459.34"/><polyline class="cls-1" points="978.1 396.81 964.18 393.15 963.65 393.01"/><path class="cls-3" d="M186.12,418.46A34.66,34.66,0,0,1,187,426c0,.73,0,1.56-.14,2.47a22.84,22.84,0,0,0-.14,2.47,51.47,51.47,0,0,1-4.12,13.46A79.59,79.59,0,0,1,176,456.22q-6.32,8.79-12.49,17.43T151,491.09l-22.24-15.65q6.32-8.79,12.49-17.57t12.5-17.31a19.5,19.5,0,0,0,1.92-2.88c.55-1,1.1-2.06,1.65-3.16.55-1.28,1.05-2.61,1.51-4a25.2,25.2,0,0,0,1-3.71,22.81,22.81,0,0,0-7,.69A77.09,77.09,0,0,0,142.19,431l-7.56,2.89c-2.65,1-5.35,2.15-8.1,3.43q-3,1.38-5.9,2.88T115,443.31q-1.65,1.1-3.85,2.61a48.64,48.64,0,0,0-4.39,3.43,45.45,45.45,0,0,0-7,6.87,18.17,18.17,0,0,0-4,7.69,4.26,4.26,0,0,0-.28,1.37v1.1a8.45,8.45,0,0,0,.69,3.29,12.7,12.7,0,0,0,2.06,3.3L116,492.33l17.71,19.36a16.45,16.45,0,0,1,4,6.31,39.77,39.77,0,0,1,1.79,7.42v2.47a37.77,37.77,0,0,1-.82,8,35.17,35.17,0,0,1-2.48,7.42,38.43,38.43,0,0,1-13.59,16.89,35.7,35.7,0,0,1-21,6.45H21.08l8.79-27.19h71.67a9.8,9.8,0,0,0,7.28-3.29,11.65,11.65,0,0,0,3.43-7.42c-2.74-3.11-5.54-6.22-8.37-9.33s-5.73-6.22-8.65-9.34-5.82-6.22-8.65-9.34-5.73-6.22-8.65-9.33a33.48,33.48,0,0,1-7.55-12.22A41.17,41.17,0,0,1,68,465.55q.55-17.83,14.14-30.61A121.76,121.76,0,0,1,112,414.2q5.49-2.74,10.71-4.94t10.16-4.12a90.34,90.34,0,0,1,11-3.43,79.58,79.58,0,0,1,12.09-2.06h3.57a33.83,33.83,0,0,1,13.31,2.61,22.41,22.41,0,0,1,10.3,9.2A20.45,20.45,0,0,1,186.12,418.46Z"/><path class="cls-3" d="M215.51,505.37H201L189.7,539.7h32.67l-8.78,27.18H182.83q-9.89,0-16.06-6.59a21.75,21.75,0,0,1-6.18-15.38,12.86,12.86,0,0,1,.13-1.78,14.82,14.82,0,0,0,.14-2.06c.18-.73.37-1.42.55-2.06s.36-1.23.55-1.78l10.43-31.86H157l9.06-27.18h15.1l10.44-32.13,25.81,8.51-7.69,23.62H224.3Z"/><path class="cls-3" d="M310,566.88H250.11a31.17,31.17,0,0,1-13.87-3.15,22.44,22.44,0,0,1-10-9.75,26.24,26.24,0,0,1-2.47-6.59,31.61,31.61,0,0,1-.82-7.14,11.69,11.69,0,0,1,.14-1.79,14.78,14.78,0,0,0,.13-2.06,55,55,0,0,1,2.34-11.12q1.78-5.62,3.7-10.3a73.27,73.27,0,0,1,14.15-21.83,62.3,62.3,0,0,1,17.43-13,41.78,41.78,0,0,1,7.56-3.43,44,44,0,0,1,7.27-1.79c1.1-.18,2.2-.32,3.3-.41s2.29-.14,3.57-.14a33.54,33.54,0,0,1,20.05,6.32q8.78,6.31,8.78,17.57a24.83,24.83,0,0,1-1.92,9.61q-2.21,6.87-9.06,15T281.14,539.7H319Zm-44.21-58.21a46.87,46.87,0,0,0-11,15.65.56.56,0,0,1-.13.41.54.54,0,0,0-.14.41q12.63-7.41,19.36-13.59t9.2-10.57A26.39,26.39,0,0,0,265.76,508.67Z"/><path class="cls-3" d="M403.88,566.88H344a31.21,31.21,0,0,1-13.87-3.15,22.47,22.47,0,0,1-10-9.75,25.86,25.86,0,0,1-2.47-6.59,31.63,31.63,0,0,1-.83-7.14,13.11,13.11,0,0,1,.14-1.79,14.72,14.72,0,0,0,.14-2.06,54.33,54.33,0,0,1,2.33-11.12q1.79-5.62,3.71-10.3a73.25,73.25,0,0,1,14.14-21.83,62.34,62.34,0,0,1,17.44-13,41.4,41.4,0,0,1,7.55-3.43,44.12,44.12,0,0,1,7.28-1.79c1.1-.18,2.2-.32,3.29-.41s2.29-.14,3.57-.14a33.5,33.5,0,0,1,20.05,6.32q8.79,6.31,8.79,17.57a24.83,24.83,0,0,1-1.92,9.61q-2.2,6.87-9.07,15T375.05,539.7H413Zm-44.21-58.21a47,47,0,0,0-11,15.65.56.56,0,0,1-.14.41.58.58,0,0,0-.14.41q12.63-7.41,19.36-13.59T377,501A26.42,26.42,0,0,0,359.67,508.67Z"/><path class="cls-3" d="M442.6,539.7h27.19L461,566.88H436.56q-10.15,0-16.47-6.72a22.3,22.3,0,0,1-6.32-15.79,13.43,13.43,0,0,1,.14-2.06,14.88,14.88,0,0,0,.13-2.06c.18-.55.37-1.14.55-1.79s.37-1.32.55-2.06l45-138.4h28.56Z"/><path class="cls-3" d="M554.64,566.88H494.77a31.16,31.16,0,0,1-13.86-3.15,22.44,22.44,0,0,1-10-9.75,25.86,25.86,0,0,1-2.47-6.59,31.61,31.61,0,0,1-.82-7.14,11.69,11.69,0,0,1,.14-1.79,14.78,14.78,0,0,0,.13-2.06,54.37,54.37,0,0,1,2.34-11.12q1.79-5.62,3.7-10.3a73.27,73.27,0,0,1,14.15-21.83,62.3,62.3,0,0,1,17.43-13,41.47,41.47,0,0,1,7.56-3.43,44,44,0,0,1,7.27-1.79c1.1-.18,2.2-.32,3.3-.41s2.29-.14,3.57-.14a33.49,33.49,0,0,1,20,6.32Q556,487,556,498.23a26.39,26.39,0,0,1-.41,4.53,25.52,25.52,0,0,1-1.51,5.08q-2.21,6.87-9.06,15T525.8,539.7h37.9Zm-44.21-58.21a46.87,46.87,0,0,0-11,15.65.56.56,0,0,1-.13.41.54.54,0,0,0-.14.41q12.63-7.41,19.36-13.59t9.2-10.57A26.39,26.39,0,0,0,510.43,508.67Z"/><path class="cls-3" d="M835.09,439.9a77,77,0,0,1,.41,8,126.08,126.08,0,0,1-2.76,24.32,300.79,300.79,0,0,1-8.29,31.23l-21,63.83H774.7l13-39.52h-61.9a70.3,70.3,0,0,0,.14,10q.41,5,1,10.23.55,3.87,1.52,8t1.8,8l2.76,9.39q1.38,4.7,2.77,9.4a20.47,20.47,0,0,0,.69,2.62c.27.83.5,1.61.69,2.35l-26.25,8q-3-10.51-6-21.42t-4.83-22c-.37-2-.69-4-1-6.08s-.51-4.15-.69-6.36c-.19-2-.32-4.05-.42-6.08s-.13-4.05-.13-6.08H666.37l8.85-27.63H702a162.13,162.13,0,0,1,34.55-64.67,120.52,120.52,0,0,1,17.82-16.17,87.09,87.09,0,0,1,18.93-10.64,73,73,0,0,1,11.06-3.45A48.86,48.86,0,0,1,795.15,404q15.48,0,25.29,6.63t13.4,22.11A52.19,52.19,0,0,1,835.09,439.9Zm-31.78-6.77a16.55,16.55,0,0,0-8.16-1.79,31,31,0,0,0-12,2.76A63.06,63.06,0,0,0,770,441.84a71.53,71.53,0,0,0-6.5,5.52q-3.18,3-6.49,6.64a125.37,125.37,0,0,0-16.17,21.83,113.86,113.86,0,0,0-10.64,24.32h66.33l1.65-5a229.52,229.52,0,0,0,7.88-28.05,105.16,105.16,0,0,0,2.35-20c0-1.47,0-2.9-.14-4.29a14.82,14.82,0,0,0-.69-3.73A9.19,9.19,0,0,0,803.31,433.13Z"/><path class="cls-3" d="M912.6,567.58H852.36a31.31,31.31,0,0,1-14-3.18,22.5,22.5,0,0,1-10.09-9.81,26.42,26.42,0,0,1-2.49-6.63,32,32,0,0,1-.82-7.19,12.89,12.89,0,0,1,.13-1.79,13.7,13.7,0,0,0,.14-2.08,55.18,55.18,0,0,1,2.35-11.19q1.8-5.65,3.73-10.36a73.3,73.3,0,0,1,14.24-22,62.59,62.59,0,0,1,17.54-13.13,43,43,0,0,1,7.6-3.45,44.72,44.72,0,0,1,7.33-1.8c1.1-.18,2.21-.32,3.31-.41s2.3-.14,3.59-.14a33.76,33.76,0,0,1,20.18,6.35q8.83,6.36,8.84,17.69a24.88,24.88,0,0,1-1.93,9.67q-2.22,6.91-9.12,15.06t-19.35,17h38.14ZM868.11,509a47.32,47.32,0,0,0-11.06,15.75.57.57,0,0,1-.13.42.53.53,0,0,0-.14.41q12.71-7.46,19.48-13.68t9.26-10.64A26.55,26.55,0,0,0,868.11,509Z"/><path class="cls-3" d="M1003.52,505.68a38.44,38.44,0,0,0-5,4.42q-3.31,3.31-6.91,7.46a29.1,29.1,0,0,0-2.21,2.49,30.91,30.91,0,0,1-2.21,2.48q-3.6,4.71-6.08,8.71t-2.49,6.49a3.66,3.66,0,0,0,1,1.8,3.22,3.22,0,0,0,2.34.69h31l-8.85,27.36H982a33.49,33.49,0,0,1-15.89-3.87,27.33,27.33,0,0,1-11.46-11.61,24.55,24.55,0,0,1-1.39-3.31,21,21,0,0,1-.83-3.59,14.13,14.13,0,0,1-.69-3.32c-.09-1.11-.13-2.21-.13-3.32a41,41,0,0,1,3.86-17.27,90,90,0,0,1,9.12-15.61h-4.42a8,8,0,0,0-1.52.13,15.57,15.57,0,0,0-1.52.42,13.16,13.16,0,0,0-5.25,3.18,15.08,15.08,0,0,0-3.59,4.83,1.86,1.86,0,0,0-.42.69,2.33,2.33,0,0,0-.13.69L945.49,522l-26-8.57,15.2-47.53L961,474.45,959.58,478H1014v27.64Z"/><path class="cls-3" d="M1062.93,567.58h-24.87q-10.23,0-16.58-6.77a22.44,22.44,0,0,1-6.35-15.89,14.92,14.92,0,0,1,.13-2.07,15.12,15.12,0,0,0,.14-2.08c.18-.55.37-1.15.55-1.79s.37-1.34.56-2.08L1035.3,478h29l-19.9,62.18h27.36Zm10.37-117.87a18.52,18.52,0,0,1-26.67,0,18.51,18.51,0,0,1-5.53-13.4A18.87,18.87,0,0,1,1073.3,423a18.35,18.35,0,0,1,5.39,13.27A18.79,18.79,0,0,1,1073.3,449.71Z"/><path class="cls-3" d="M1167.67,567.58h-26.8a22.2,22.2,0,0,1-8-1.38,28.84,28.84,0,0,1-6.63-3.59,47.84,47.84,0,0,1-9,4.14,45.89,45.89,0,0,1-9.54,2.21c-1.1.18-2.21.32-3.31.42s-2.21.13-3.32.13a35.17,35.17,0,0,1-16.17-3.87,27.55,27.55,0,0,1-12-12.43,38.68,38.68,0,0,1-2.49-7.05,30.18,30.18,0,0,1-.82-7,36.69,36.69,0,0,1,2.76-14,54.86,54.86,0,0,1,7.19-12.58,74.52,74.52,0,0,1,34.4-26.11,131.92,131.92,0,0,1,42.7-8.15h3.87v27.36a140.4,140.4,0,0,0-17.55,1.1,72.84,72.84,0,0,0-16.72,4.15,55.11,55.11,0,0,0-13.54,6.9,47.33,47.33,0,0,0-11.06,10.78,12.18,12.18,0,0,1-.83,1.38,18.64,18.64,0,0,0-1.1,1.94,15.87,15.87,0,0,0-1,1.66l-1,1.93c-.19.55-.38,1.2-.56,1.94a8.24,8.24,0,0,0-.27,1.93,3.08,3.08,0,0,0,.83,2.07,3.44,3.44,0,0,0,2.76,1q10.77,0,16-7.18a61.59,61.59,0,0,0,8.29-15.76c.36-1.28.73-2.48,1.1-3.59l1.11-3.32,26,8.57L1147,540.22h29.57Z"/><path class="cls-3" d="M1203,540.22h27.36l-8.84,27.36H1197q-10.23,0-16.58-6.77a22.45,22.45,0,0,1-6.36-15.89,14.86,14.86,0,0,1,.14-2.07,15.12,15.12,0,0,0,.14-2.08c.18-.55.37-1.15.55-1.79s.37-1.34.56-2.08l45.32-139.28h28.74Z"/><path class="cls-3" d="M1285.67,556q-11.34,11.61-30.12,11.61h-27.92l8.85-27.36h19.07q7.18,0,10.64-3.45t3.45-10.92a31.39,31.39,0,0,0-.83-7.32,28.76,28.76,0,0,0-2.21-6.22l-9,12.3a54.32,54.32,0,0,0-3.73,5.38l-22.11-16q11.88-16.59,19.34-26.53,6.92-10,13-18.24t6.08-8.57l24.6,12.16c-.19.18-1.29,1.75-3.32,4.7s-4.6,6.54-7.73,10.77a58,58,0,0,1,9.81,17.55,60.08,60.08,0,0,1,3.45,20Q1297,544.36,1285.67,556Z"/><path class="cls-4" d="M186.12,418.46A34.66,34.66,0,0,1,187,426c0,.73,0,1.56-.14,2.47a22.84,22.84,0,0,0-.14,2.47,51.47,51.47,0,0,1-4.12,13.46A79.59,79.59,0,0,1,176,456.22q-6.32,8.79-12.49,17.43T151,491.09l-22.24-15.65q6.32-8.79,12.49-17.57t12.5-17.31a19.5,19.5,0,0,0,1.92-2.88c.55-1,1.1-2.06,1.65-3.16.55-1.28,1.05-2.61,1.51-4a25.2,25.2,0,0,0,1-3.71,22.81,22.81,0,0,0-7,.69A77.09,77.09,0,0,0,142.19,431l-7.56,2.89c-2.65,1-5.35,2.15-8.1,3.43q-3,1.38-5.9,2.88T115,443.31q-1.65,1.1-3.85,2.61a48.64,48.64,0,0,0-4.39,3.43,45.45,45.45,0,0,0-7,6.87,18.17,18.17,0,0,0-4,7.69,4.26,4.26,0,0,0-.28,1.37v1.1a8.45,8.45,0,0,0,.69,3.29,12.7,12.7,0,0,0,2.06,3.3L116,492.33l17.71,19.36a16.45,16.45,0,0,1,4,6.31,39.77,39.77,0,0,1,1.79,7.42v2.47a37.77,37.77,0,0,1-.82,8,35.17,35.17,0,0,1-2.48,7.42,38.43,38.43,0,0,1-13.59,16.89,35.7,35.7,0,0,1-21,6.45H21.08l8.79-27.19h71.67a9.8,9.8,0,0,0,7.28-3.29,11.65,11.65,0,0,0,3.43-7.42c-2.74-3.11-5.54-6.22-8.37-9.33s-5.73-6.22-8.65-9.34-5.82-6.22-8.65-9.34-5.73-6.22-8.65-9.33a33.48,33.48,0,0,1-7.55-12.22A41.17,41.17,0,0,1,68,465.55q.55-17.83,14.14-30.61A121.76,121.76,0,0,1,112,414.2q5.49-2.74,10.71-4.94t10.16-4.12a90.34,90.34,0,0,1,11-3.43,79.58,79.58,0,0,1,12.09-2.06h3.57a33.83,33.83,0,0,1,13.31,2.61,22.41,22.41,0,0,1,10.3,9.2A20.45,20.45,0,0,1,186.12,418.46Z"/><path class="cls-4" d="M215.51,505.37H201L189.7,539.7h32.67l-8.78,27.18H182.83q-9.89,0-16.06-6.59a21.75,21.75,0,0,1-6.18-15.38,12.86,12.86,0,0,1,.13-1.78,14.82,14.82,0,0,0,.14-2.06c.18-.73.37-1.42.55-2.06s.36-1.23.55-1.78l10.43-31.86H157l9.06-27.18h15.1l10.44-32.13,25.81,8.51-7.69,23.62H224.3Z"/><path class="cls-4" d="M310,566.88H250.11a31.17,31.17,0,0,1-13.87-3.15,22.44,22.44,0,0,1-10-9.75,26.24,26.24,0,0,1-2.47-6.59,31.61,31.61,0,0,1-.82-7.14,11.69,11.69,0,0,1,.14-1.79,14.78,14.78,0,0,0,.13-2.06,55,55,0,0,1,2.34-11.12q1.78-5.62,3.7-10.3a73.27,73.27,0,0,1,14.15-21.83,62.3,62.3,0,0,1,17.43-13,41.78,41.78,0,0,1,7.56-3.43,44,44,0,0,1,7.27-1.79c1.1-.18,2.2-.32,3.3-.41s2.29-.14,3.57-.14a33.54,33.54,0,0,1,20.05,6.32q8.78,6.31,8.78,17.57a24.83,24.83,0,0,1-1.92,9.61q-2.21,6.87-9.06,15T281.14,539.7H319Zm-44.21-58.21a46.87,46.87,0,0,0-11,15.65.56.56,0,0,1-.13.41.54.54,0,0,0-.14.41q12.63-7.41,19.36-13.59t9.2-10.57A26.39,26.39,0,0,0,265.76,508.67Z"/><path class="cls-4" d="M403.88,566.88H344a31.21,31.21,0,0,1-13.87-3.15,22.47,22.47,0,0,1-10-9.75,25.86,25.86,0,0,1-2.47-6.59,31.63,31.63,0,0,1-.83-7.14,13.11,13.11,0,0,1,.14-1.79,14.72,14.72,0,0,0,.14-2.06,54.33,54.33,0,0,1,2.33-11.12q1.79-5.62,3.71-10.3a73.25,73.25,0,0,1,14.14-21.83,62.34,62.34,0,0,1,17.44-13,41.4,41.4,0,0,1,7.55-3.43,44.12,44.12,0,0,1,7.28-1.79c1.1-.18,2.2-.32,3.29-.41s2.29-.14,3.57-.14a33.5,33.5,0,0,1,20.05,6.32q8.79,6.31,8.79,17.57a24.83,24.83,0,0,1-1.92,9.61q-2.2,6.87-9.07,15T375.05,539.7H413Zm-44.21-58.21a47,47,0,0,0-11,15.65.56.56,0,0,1-.14.41.58.58,0,0,0-.14.41q12.63-7.41,19.36-13.59T377,501A26.42,26.42,0,0,0,359.67,508.67Z"/><path class="cls-4" d="M442.6,539.7h27.19L461,566.88H436.56q-10.15,0-16.47-6.72a22.3,22.3,0,0,1-6.32-15.79,13.43,13.43,0,0,1,.14-2.06,14.88,14.88,0,0,0,.13-2.06c.18-.55.37-1.14.55-1.79s.37-1.32.55-2.06l45-138.4h28.56Z"/><path class="cls-4" d="M554.64,566.88H494.77a31.16,31.16,0,0,1-13.86-3.15,22.44,22.44,0,0,1-10-9.75,25.86,25.86,0,0,1-2.47-6.59,31.61,31.61,0,0,1-.82-7.14,11.69,11.69,0,0,1,.14-1.79,14.78,14.78,0,0,0,.13-2.06,54.37,54.37,0,0,1,2.34-11.12q1.79-5.62,3.7-10.3a73.27,73.27,0,0,1,14.15-21.83,62.3,62.3,0,0,1,17.43-13,41.47,41.47,0,0,1,7.56-3.43,44,44,0,0,1,7.27-1.79c1.1-.18,2.2-.32,3.3-.41s2.29-.14,3.57-.14a33.49,33.49,0,0,1,20,6.32Q556,487,556,498.23a26.39,26.39,0,0,1-.41,4.53,25.52,25.52,0,0,1-1.51,5.08q-2.21,6.87-9.06,15T525.8,539.7h37.9Zm-44.21-58.21a46.87,46.87,0,0,0-11,15.65.56.56,0,0,1-.13.41.54.54,0,0,0-.14.41q12.63-7.41,19.36-13.59t9.2-10.57A26.39,26.39,0,0,0,510.43,508.67Z"/><path class="cls-4" d="M835.09,439.9a77,77,0,0,1,.41,8,126.08,126.08,0,0,1-2.76,24.32,300.79,300.79,0,0,1-8.29,31.23l-21,63.83H774.7l13-39.52h-61.9a70.3,70.3,0,0,0,.14,10q.41,5,1,10.23.55,3.87,1.52,8t1.8,8l2.76,9.39q1.38,4.7,2.77,9.4a20.47,20.47,0,0,0,.69,2.62c.27.83.5,1.61.69,2.35l-26.25,8q-3-10.51-6-21.42t-4.83-22c-.37-2-.69-4-1-6.08s-.51-4.15-.69-6.36c-.19-2-.32-4.05-.42-6.08s-.13-4.05-.13-6.08H666.37l8.85-27.63H702a162.13,162.13,0,0,1,34.55-64.67,120.52,120.52,0,0,1,17.82-16.17,87.09,87.09,0,0,1,18.93-10.64,73,73,0,0,1,11.06-3.45A48.86,48.86,0,0,1,795.15,404q15.48,0,25.29,6.63t13.4,22.11A52.19,52.19,0,0,1,835.09,439.9Zm-31.78-6.77a16.55,16.55,0,0,0-8.16-1.79,31,31,0,0,0-12,2.76A63.06,63.06,0,0,0,770,441.84a71.53,71.53,0,0,0-6.5,5.52q-3.18,3-6.49,6.64a125.37,125.37,0,0,0-16.17,21.83,113.86,113.86,0,0,0-10.64,24.32h66.33l1.65-5a229.52,229.52,0,0,0,7.88-28.05,105.16,105.16,0,0,0,2.35-20c0-1.47,0-2.9-.14-4.29a14.82,14.82,0,0,0-.69-3.73A9.19,9.19,0,0,0,803.31,433.13Z"/><path class="cls-4" d="M912.6,567.58H852.36a31.31,31.31,0,0,1-14-3.18,22.5,22.5,0,0,1-10.09-9.81,26.42,26.42,0,0,1-2.49-6.63,32,32,0,0,1-.82-7.19,12.89,12.89,0,0,1,.13-1.79,13.7,13.7,0,0,0,.14-2.08,55.18,55.18,0,0,1,2.35-11.19q1.8-5.65,3.73-10.36a73.3,73.3,0,0,1,14.24-22,62.59,62.59,0,0,1,17.54-13.13,43,43,0,0,1,7.6-3.45,44.72,44.72,0,0,1,7.33-1.8c1.1-.18,2.21-.32,3.31-.41s2.3-.14,3.59-.14a33.76,33.76,0,0,1,20.18,6.35q8.83,6.36,8.84,17.69a24.88,24.88,0,0,1-1.93,9.67q-2.22,6.91-9.12,15.06t-19.35,17h38.14ZM868.11,509a47.32,47.32,0,0,0-11.06,15.75.57.57,0,0,1-.13.42.53.53,0,0,0-.14.41q12.71-7.46,19.48-13.68t9.26-10.64A26.55,26.55,0,0,0,868.11,509Z"/><path class="cls-4" d="M1003.52,505.68a38.44,38.44,0,0,0-5,4.42q-3.31,3.31-6.91,7.46a29.1,29.1,0,0,0-2.21,2.49,30.91,30.91,0,0,1-2.21,2.48q-3.6,4.71-6.08,8.71t-2.49,6.49a3.66,3.66,0,0,0,1,1.8,3.22,3.22,0,0,0,2.34.69h31l-8.85,27.36H982a33.49,33.49,0,0,1-15.89-3.87,27.33,27.33,0,0,1-11.46-11.61,24.55,24.55,0,0,1-1.39-3.31,21,21,0,0,1-.83-3.59,14.13,14.13,0,0,1-.69-3.32c-.09-1.11-.13-2.21-.13-3.32a41,41,0,0,1,3.86-17.27,90,90,0,0,1,9.12-15.61h-4.42a8,8,0,0,0-1.52.13,15.57,15.57,0,0,0-1.52.42,13.16,13.16,0,0,0-5.25,3.18,15.08,15.08,0,0,0-3.59,4.83,1.86,1.86,0,0,0-.42.69,2.33,2.33,0,0,0-.13.69L945.49,522l-26-8.57,15.2-47.53L961,474.45,959.58,478H1014v27.64Z"/><path class="cls-4" d="M1062.93,567.58h-24.87q-10.23,0-16.58-6.77a22.44,22.44,0,0,1-6.35-15.89,14.92,14.92,0,0,1,.13-2.07,15.12,15.12,0,0,0,.14-2.08c.18-.55.37-1.15.55-1.79s.37-1.34.56-2.08L1035.3,478h29l-19.9,62.18h27.36Zm10.37-117.87a18.52,18.52,0,0,1-26.67,0,18.51,18.51,0,0,1-5.53-13.4A18.87,18.87,0,0,1,1073.3,423a18.35,18.35,0,0,1,5.39,13.27A18.79,18.79,0,0,1,1073.3,449.71Z"/><path class="cls-4" d="M1167.67,567.58h-26.8a22.2,22.2,0,0,1-8-1.38,28.84,28.84,0,0,1-6.63-3.59,47.84,47.84,0,0,1-9,4.14,45.89,45.89,0,0,1-9.54,2.21c-1.1.18-2.21.32-3.31.42s-2.21.13-3.32.13a35.17,35.17,0,0,1-16.17-3.87,27.55,27.55,0,0,1-12-12.43,38.68,38.68,0,0,1-2.49-7.05,30.18,30.18,0,0,1-.82-7,36.69,36.69,0,0,1,2.76-14,54.86,54.86,0,0,1,7.19-12.58,74.52,74.52,0,0,1,34.4-26.11,131.92,131.92,0,0,1,42.7-8.15h3.87v27.36a140.4,140.4,0,0,0-17.55,1.1,72.84,72.84,0,0,0-16.72,4.15,55.11,55.11,0,0,0-13.54,6.9,47.33,47.33,0,0,0-11.06,10.78,12.18,12.18,0,0,1-.83,1.38,18.64,18.64,0,0,0-1.1,1.94,15.87,15.87,0,0,0-1,1.66l-1,1.93c-.19.55-.38,1.2-.56,1.94a8.24,8.24,0,0,0-.27,1.93,3.08,3.08,0,0,0,.83,2.07,3.44,3.44,0,0,0,2.76,1q10.77,0,16-7.18a61.59,61.59,0,0,0,8.29-15.76c.36-1.28.73-2.48,1.1-3.59l1.11-3.32,26,8.57L1147,540.22h29.57Z"/><path class="cls-4" d="M1203,540.22h27.36l-8.84,27.36H1197q-10.23,0-16.58-6.77a22.45,22.45,0,0,1-6.36-15.89,14.86,14.86,0,0,1,.14-2.07,15.12,15.12,0,0,0,.14-2.08c.18-.55.37-1.15.55-1.79s.37-1.34.56-2.08l45.32-139.28h28.74Z"/><path class="cls-4" d="M1285.67,556q-11.34,11.61-30.12,11.61h-27.92l8.85-27.36h19.07q7.18,0,10.64-3.45t3.45-10.92a31.39,31.39,0,0,0-.83-7.32,28.76,28.76,0,0,0-2.21-6.22l-9,12.3a54.32,54.32,0,0,0-3.73,5.38l-22.11-16q11.88-16.59,19.34-26.53,6.92-10,13-18.24t6.08-8.57l24.6,12.16c-.19.18-1.29,1.75-3.32,4.7s-4.6,6.54-7.73,10.77a58,58,0,0,1,9.81,17.55,60.08,60.08,0,0,1,3.45,20Q1297,544.36,1285.67,556Z"/></svg>